<?xml version="1.0" standalone="no"?>
<!DOCTYPE svg PUBLIC "-//W3C//DTD SVG 1.1//EN" "http://www.w3.org/Graphics/SVG/1.1/DTD/svg11.dtd" >
<!--
2013-9-30: Created.
-->
<svg>
<metadata>
Created by iconfont
</metadata>
<defs>

<font id="icon" horiz-adv-x="1024" >
  <font-face
    font-family="icon"
    font-weight="500"
    font-stretch="normal"
    units-per-em="1024"
    ascent="896"
    descent="-128"
  />
    <missing-glyph />
    
    <glyph glyph-name="biaoqing" unicode="&#58881;" d="M511.29472 896C228.98304 896 0 666.28864 0 384.23936c0-282.04288 228.98304-510.82752 511.29472-510.82752s511.29472 228.78464 511.29472 510.82752C1022.58816 666.28864 793.60512 896 511.29472 896L511.29472 896zM303.40224 710.5856c49.19936 0 89.10592-53.16864 89.10592-118.67136 0-65.50912-39.90656-118.67136-89.10592-118.67136-49.14816 0-89.06112 53.16224-89.06112 118.67136C214.34112 657.41696 254.25408 710.5856 303.40224 710.5856L303.40224 710.5856zM719.17952 710.5856c49.16096 0 89.06752-53.16864 89.06752-118.67136 0-65.50912-39.90656-118.67136-89.06752-118.67136-49.18656 0-89.09312 53.16224-89.09312 118.67136C630.08768 657.41696 669.99424 710.5856 719.17952 710.5856L719.17952 710.5856zM303.40224 651.24992c-32.7616 0-59.37408-26.59328-59.37408-59.33568 0-32.7552 26.61248-59.33568 59.37408-59.33568 32.8128 0 59.41248 26.58048 59.41248 59.33568C362.81472 624.65536 336.21504 651.24992 303.40224 651.24992L303.40224 651.24992zM719.17952 651.24992c-32.8 0-59.40608-26.59328-59.40608-59.33568 0-32.7552 26.60608-59.33568 59.40608-59.33568 32.7744 0 59.38048 26.58048 59.38048 59.33568C778.56 624.65536 751.95392 651.24992 719.17952 651.24992L719.17952 651.24992zM511.29472 331.26912c178.16704 0 356.37248-3.89888 356.37248-73.10848 0-175.776-159.64544-289.27104-356.37248-289.27104-196.72064 0-356.36608 113.49504-356.36608 289.27104C154.92864 327.37024 333.13408 331.26912 511.29472 331.26912L511.29472 331.26912z"  horiz-adv-x="1024" />

    
    <glyph glyph-name="tap" unicode="&#58939;" d="M834.37568 426.24c-4.16768 0-14.7456-1.4336-25.62048-4.8128-2.77504 36.99712-33.78176 66.2528-71.4752 66.2528-16.96768 0-32.58368-5.92896-44.87168-15.8208-9.08288 27.72992-33.09568 46.5408-62.83264 46.5408-19.69152 0-37.21216-8.09984-49.70496-21.32992l-3.15392 88.2176c34.95936 25.10848 57.79456 66.07872 57.79456 112.31232 0 76.22656-62.01344 138.24-138.24 138.24s-138.24-62.01344-138.24-138.24c0-53.00224 30.08512-98.93888 73.99424-122.10176l4.62848-216.40192c-8.27392-4.49536-20.82816-12.71808-36.89472-27.31008-55.59296-50.52416-73.78944-172.72832-11.008-267.3152 69.888-105.28768 151.77728-150.23104 273.83808-150.23104 129.32096 0 172.58496 64.90112 205.824 131.3792 31.96928 63.93856 32.33792 308.79744 32.33792 319.1808C900.7616 397.53728 869.74464 426.24 834.37568 426.24zM388.7616 697.6c0 59.2896 48.2304 107.52 107.52 107.52s107.52-48.2304 107.52-107.52c0-27.97568-10.89536-53.31968-28.49792-72.448l-2.22208 62.208c0 43.78624-30.83264 76.8-71.72096 76.8s-71.72096-33.01376-71.72096-77.12768l1.59744-74.65984C405.52448 632.02304 388.7616 662.81472 388.7616 697.6zM840.93952 59.36128c-31.29344-62.58688-66.304-114.40128-178.33984-114.40128-111.98464 0-183.90016 39.54688-248.23808 136.4992-37.48864 56.48384-53.76 173.21984 6.07232 227.60448 6.46144 5.86752 12.16512 10.46528 16.9984 14.03904l2.29376-107.10016c0.18432-8.47872 6.94272-15.43168 15.68768-15.03232 8.47872 0.18432 15.2064 7.19872 15.03232 15.68768l-10.07616 470.70208c0 27.12576 16.85504 46.08 41.00096 46.08s41.00096-18.95424 41.0112-46.63296l10.24-286.72c0.27648-7.87456 6.48192-14.26432 14.336-14.77632 7.69024-0.48128 14.83776 4.99712 16.15872 12.76928l7.77216 46.08c0.14336 0.84992 0.21504 1.69984 0.21504 2.56 0 23.3472 16.54784 40.96 38.49216 40.96 24.75008 0 36.02432-21.22752 36.02432-40.96l0-30.72c0-8.48896 6.88128-15.36 15.36-15.36s15.36 6.87104 15.36 15.36c0 22.58944 18.37056 40.96 40.96 40.96s40.96-18.37056 40.96-40.96l0-66.56c0-8.47872 6.88128-15.36 15.36-15.36s15.36 6.88128 15.36 15.36l0 39.1168c6.144 2.99008 18.18624 6.97344 25.41568 6.97344 18.3296 0 35.65568-14.92992 35.65568-30.72C870.0416 296.02816 864.79872 107.07968 840.93952 59.36128z"  horiz-adv-x="1229" />

    
    <glyph glyph-name="gaoyizhizhitongche04" unicode="&#59006;" d="M66.340571 419.108571l406.016 0L472.356571 825.197714 66.340571 825.197714 66.340571 419.108571zM121.197714 770.340571l296.301714 0L417.499429 473.965714 121.197714 473.965714 121.197714 770.340571zM544.841143 825.197714 544.841143 419.108571 950.857143 419.108571 950.857143 825.197714 544.841143 825.197714zM896 473.965714 599.698286 473.965714 599.698286 770.340571l296.301714 0L896 473.965714zM66.340571-49.737143l406.016 0L472.356571 356.352 66.340571 356.352 66.340571-49.737143zM121.197714 301.494857l296.301714 0 0-296.301714L121.197714 5.193143 121.197714 301.494857zM544.841143-49.737143 950.857143-49.737143 950.857143 356.352 544.841143 356.352 544.841143-49.737143zM637.732571 169.033143c18.212571 3.218286 33.938286-7.68 48.932571-23.698286 14.994286-16.018286 25.380571-37.814857 30.793143-38.912 5.339429-1.097143 16.091429 35.474286 46.299429 78.774857 27.209143 38.985143 72.265143 88.502857 93.622857 94.939429s43.812571 2.925714 41.691429-4.534857c-2.121143-7.460571-49.444571-46.884571-71.826286-76.8s-51.638857-81.554286-69.632-123.684571c-12.946286-30.354286-13.531429-34.450286-27.428571-41.984-13.897143-7.460571-40.594286-12.8-46.006857-8.557714-5.339429 4.242286-8.923429 27.574857-29.184 61.732571-20.333714 34.230857-32.621714 37.156571-56.173714 53.467429C587.849143 147.382857 619.593143 165.814857 637.732571 169.033143z"  horiz-adv-x="1024" />

    
    <glyph glyph-name="fankuitianxie" unicode="&#59035;" d="M1091.9872 868.69973333c-48.46826667 38.7744-164.79146667 29.07946667-324.73493333-92.08853333-227.79946667-169.6384-329.58186667-392.5888-474.98453334-610.69546667-24.2336-33.92746667 14.5408-53.3152 43.62133334-38.7744l92.08853333 53.3152c14.5408 4.84693333 19.38666667 4.84693333 14.5408 29.07946667-9.69386667 72.70186667 19.38773333 140.5568 63.008 198.71786667v0c159.94346667-67.85493333 353.81546667-29.07946667 421.67146667 164.79146666 87.2416 19.38773333 169.6384 116.3232 184.17813333 184.17706667 14.5408 48.46826667 9.69386667 92.08853333-19.38666667 111.47626667zM117.78346667 165.91573332999997c130.86293333-227.79946667 416.82453333-305.3472 644.62186666-174.48533333 150.2496 87.2416 232.64533333 242.3392 237.49226667 402.28266667 0 53.3152-63.008 48.46826667-63.008 0 0-140.5568-72.70186667-271.4208-203.5648-348.96853334-198.71786667-111.47626667-450.75093333-43.62133333-562.2272 150.2496-116.3232 198.71786667-48.46826667 450.75093333 150.2496 562.2272 106.62933333 63.008 237.49226667 72.70186667 344.1216 29.07946667 43.62133333-14.5408 63.008 43.62133333 19.38666667 58.16213333-126.01706667 43.62133333-266.57173333 38.7744-392.5888-33.92746666-227.79946667-130.86293333-305.3472-421.67146667-174.48533334-644.62186667z"  horiz-adv-x="1138" />

    
    <glyph glyph-name="more-fill" unicode="&#58888;" d="M121.7444 504.2432c-65.493 0-118.5894-53.0729-118.5894-118.5894 0-65.493 53.0964-118.5659 118.5894-118.5659s118.5894 53.0729 118.5894 118.5659C240.3338 451.1693 187.2374 504.2432 121.7444 504.2432zM499.9741 504.2432c-65.493 0-118.5894-53.0729-118.5894-118.5894 0-65.493 53.0964-118.5659 118.5894-118.5659s118.5894 53.0729 118.5894 118.5659C618.5636 451.1693 565.4671 504.2432 499.9741 504.2432zM901.845 504.2432c-65.493 0-118.5905-53.0729-118.5905-118.5894 0-65.493 53.0975-118.5659 118.5905-118.5659s118.5894 53.0729 118.5894 118.5659C1020.4334 451.1693 967.338 504.2432 901.845 504.2432z"  horiz-adv-x="1024" />

    
    <glyph glyph-name="iconfontbiaoqingwunai2eps" unicode="&#59012;" d="M721.846 748.518h-16.441v-150.075h29.325v108.196l61.836-108.196h31.229v150.075h-29.287v-105.359l-60.195 105.359h-16.468zM975.958 731.001c-12.975 14.373-30.522 21.606-52.725 21.606-22.031 0-39.574-7.203-52.571-21.606-13.004-14.411-19.462-33.838-19.462-58.315 0-24.057 6.483-43.067 19.462-57.174 12.966-14.109 30.511-21.132 52.571-21.132 22.176 0 39.748 7.025 52.725 21.132 12.999 14.109 19.456 33.116 19.456 57.174 0.025 24.48-6.455 43.907-19.456 58.315v0zM953.244 634.73c-7.175-9.143-17.217-13.716-30.009-13.716-12.796 0-22.78 4.575-29.949 13.716-7.172 9.178-10.756 21.85-10.756 38.139 0 16.586 3.585 29.589 10.816 39.002 7.204 9.357 17.153 14.078 29.89 14.078 12.795 0 22.833-4.689 30.009-14.078 7.234-9.381 10.847-22.415 10.847-39.002 0.036-16.263-3.586-28.961-10.847-38.139v0zM341.335 501.969c-58.972-79.835-221.173-70.239-222.88-70.091-8.129 0.386-15.327-5.711-15.903-13.926-0.534-8.222 5.684-15.335 13.934-15.903 1.434-0.092 9.263-0.571 21.43-0.571 49.793 0 172.246 7.981 227.482 82.734 4.899 6.637 3.499 15.988-3.145 20.894-6.692 4.899-16.013 3.495-20.917-3.137v0zM616.069 501.969c-4.934 6.633-14.317 8.006-20.894 3.106-6.663-4.901-8.075-14.255-3.135-20.893 55.258-74.719 177.714-82.734 227.478-82.734 12.166 0 19.996 0.479 21.431 0.567 8.221 0.565 14.462 7.681 13.927 15.903-0.534 8.246-7.559 14.226-15.904 13.926-1.614-0.117-163.754-9.892-222.903 70.122v0zM377.527 542.493c-1.462 8.131-9.323 13.573-17.363 12.076-19.039-3.469-39.6 0.062-48.51 5.41-7.114 4.247-16.288 1.972-20.502-5.109-4.249-7.084-1.974-16.258 5.11-20.503 11.804-7.082 29.887-11.027 48.21-11.027 7.084 0 14.195 0.597 20.982 1.823 8.131 1.435 13.54 9.203 12.074 17.333v0zM655.906 531.225c7.293 3.857 10.106 12.882 6.25 20.176-3.857 7.324-12.972 10.045-20.202 6.246-17.1-8.995-37.754-11.925-47.945-9.504-8.131 1.945-16.050-3.108-17.935-11.088-1.881-8.039 3.082-16.080 11.122-17.961 4.482-1.051 9.533-1.552 14.97-1.552 16.919-0.033 37.153 4.957 53.738 13.684v0zM680.415 285.755c-5.108 6.455-14.491 7.529-20.978 2.417-0.78-0.626-79.591-62.047-184.259-62.047-103.087 0-159.666 59.863-160.236 60.464-5.588 6.041-15.056 6.481-21.099 0.835-6.065-5.588-6.484-14.969-0.927-21.039 2.633-2.898 65.456-70.177 182.261-70.177 115.402 0 199.322 65.757 202.852 68.535 6.454 5.169 7.503 14.585 2.388 21.010v0zM921.26 568.918c-2.781 7.743-11.266 11.831-19.1 9.026-7.802-2.78-11.834-11.327-9.058-19.1 16.679-46.564 25.105-95.461 25.105-145.406 0-119.404-50.087-234.020-137.308-315.536-36.345-3.339-78.213-17.391-120.569-47.102-130.7-91.79-112.019-144.362-106.938-153.953 2.715-5.206 8.155-8.277 13.686-8.277 2.274 0 4.543 0.53 6.698 1.634 7.294 3.865 10.278 12.469 6.422 19.759-0.122 0.42-12.7 39.162 97.291 116.422 83.831 58.845 161.905 46.442 182.082 22.926 2.596-3.053 10.247-11.934-2.183-26.88-65.281-17.537-103.805-42.673-114.534-74.656-7.89-23.459 1.703-44.469 8.608-53.17 5.14-6.512 14.527-7.555 20.982-2.421 6.482 5.11 7.559 14.503 2.417 20.986-0.092 0.122-8.368 11.113-3.677 25.102 4.274 12.675 22.658 36.861 98.038 56.399 2.692 0.688 5.109 2.128 7.025 4.126 21.517 22.388 23.82 49.194 5.981 70.032-11.872 13.861-33.179 24.358-60.352 28.268 80.315 85.309 126.196 198.611 126.196 316.434 0.057 53.264-8.996 105.569-26.812 155.391v0zM336.342 50.797c-52.338 36.737-103.983 49.375-145.255 47.644-86.767 81.412-136.562 196.007-136.562 314.994 0 238.126 193.709 431.859 431.824 431.859 87.489 0 171.742-26.033 243.65-75.261 6.788-4.661 16.112-2.929 20.747 3.885 4.659 6.815 2.959 16.111-3.885 20.775-76.873 52.661-166.99 80.486-260.51 80.486-254.588 0-461.712-207.155-461.712-461.749 0-119.76 47.552-235.014 130.434-320.767-17.695-5.281-31.803-13.655-40.621-23.932-17.842-20.801-15.57-47.644 5.949-70.028 1.909-1.98 4.365-3.415 7.025-4.126 74.93-19.402 93.521-43.433 97.948-56.010 4.837-13.776-3.113-24.864-3.683-25.614-4.987-6.461-3.881-15.755 2.542-20.839 6.461-5.134 15.872-4.001 21.011 2.421 6.875 8.705 16.47 29.713 8.58 53.146-10.731 32.015-49.259 57.146-114.532 74.697-12.436 14.946-4.785 23.846-2.183 26.866 20.148 23.552 98.243 35.982 182.051-22.922 109.361-76.812 97.584-115.551 97.701-115.551-3.857-7.297-1.044-16.349 6.251-20.203 2.208-1.166 4.603-1.742 6.964-1.742 5.378 0 10.551 2.9 13.238 7.984 5.054 9.627 23.732 62.196-106.972 153.986v0z"  horiz-adv-x="1024" />

    
    <glyph glyph-name="xie" unicode="&#58905;" d="M717.024 556.578L599.081 674.004 245.244 321.726l117.944-117.422z m117.95 117.426c16.28 16.21 16.28 42.496 0 58.711l-58.977 58.71c-16.285 16.21-42.688 16.21-58.973 0l-88.455-88.07 117.945-117.422 88.46 88.071zM215.521 292.396l-39.257-156.533 157.226 39.093z m700.903-242.34H106.468c-23.136 0-41.894-18.715-41.894-41.792 0-23.083 18.758-41.8 41.894-41.8h809.955c23.135 0 41.894 18.717 41.894 41.8 0 23.077-18.758 41.792-41.893 41.792z"  horiz-adv-x="1024" />

    
    <glyph glyph-name="xiaoxi2" unicode="&#59034;" d="M203.72229689 421.41134697c0 0 0 0 0 0 0-34.24620089 27.76299141-62.0091923 62.00919229-62.0091923 34.24620089 0 62.0091923 27.76299141 62.0091923 62.0091923 0 0 0 0 0 0 0 0 0 0 0 0 0 34.24620089-27.76299141 62.0091923-62.0091923 62.00919228-34.24620089 0-62.0091923-27.76299141-62.00919229-62.00919228s0 0 0 0zM448.81237333 421.41134697c0 0 0 0 0 0 0-34.24620089 27.76299141-62.0091923 62.0091923-62.0091923 34.24620089 0 62.0091923 27.76299141 62.00919229 62.0091923 0 0 0 0 0 0 0 0 0 0 0 0 0 34.24620089-27.76299141 62.0091923-62.00919229 62.00919228-34.24620089 0-62.0091923-27.76299141-62.0091923-62.00919228s0 0 0 0zM693.90244978 421.41134697c0-34.24620089 27.76299141-62.0091923 62.0091923-62.0091923s62.0091923 27.76299141 62.00919229 62.0091923c0 34.24620089-27.76299141 62.0091923-62.00919229 62.00919228-34.24620089 0-62.0091923-27.76299141-62.0091923-62.00919228zM972.5748717 595.21281897c-25.48015408 52.73099378-61.7142803 100.15721245-107.96327822 140.66210133-94.11819141 82.6287597-218.87324918 127.99544889-351.28630993 127.99544888-132.56112355 0-257.3149677-45.51232475-351.28630992-127.99544888-46.24899792-40.50488889-82.48191052-87.78425837-107.96327822-140.66210133-26.51173925-55.08664889-39.91627852-113.56053808-39.91627852-173.80268564 0-70.69878045 19.29549748-140.9557997 55.67525926-203.40675318 31.81408711-54.49803852 76.88465067-103.24954075 130.940928-141.8405357v-146.55305956c0-12.66665245 6.77569422-24.30293333 17.6740883-30.63686637 5.45041067-3.0923283 11.63628089-4.71373748 17.6740883-4.71373749s12.22489125 1.61898192 17.67408828 4.71373749l155.09579852 89.55251673c34.17216948-6.48078222 69.37349689-9.72117333 104.42918875-9.72117333 132.56112355 0 257.3149677 45.51232475 351.28630992 127.9954489 46.24899792 40.50488889 82.48191052 87.78425837 107.96327823 140.66210133 26.51173925 55.08664889 39.91627852 113.56053808 39.91627852 173.80268563 0.14806282 60.38899675-13.40332563 118.86288592-39.91627852 173.94832119zM513.32528355 49.50546962999999c-34.75956622 0-69.52034608 3.68336592-103.10390518 10.89839407-8.54273897 1.76704475-17.52723911 0.44176118-25.03839289-3.97706429l-113.70860089-65.69134459v103.98621393c0 11.92997925-6.03902103 22.97643615-15.90704356 29.60528117-108.55188859 71.14175525-170.85599289 179.39873185-170.85599288 297.08318341 0 205.02816237 192.21344711 371.75902815 428.61272177 371.75902815 236.25242548 0 428.61272178-166.73207941 428.61272178-371.75902815s-192.3602963-371.90709097-428.61272178-371.90709096z"  horiz-adv-x="1024" />

    
    <glyph glyph-name="dengpao" unicode="&#59005;" d="M600.631 138.984a30.104 30.104 0 0 1-7.432-0.944l-174.761-45.062c-13.278-3.082-21.909-15.912-19.759-29.372 1.592-12.563 11.383-25.362 26.895-25.362a29.984 29.984 0 0 1 7.491 1.003l174.702 45.003c13.278 3.082 21.909 15.912 19.759 29.373-1.593 12.621-11.324 25.361-26.895 25.361z m-41.759-94.252a25.835 25.835 0 0 1-14.804-5.013c-11.619-7.962-22.767-12.386-33.088-12.976h-1.357a45.727 45.727 0 0 0-20.054 5.898c-0.59 0.295-2.89 1.828-4.424 2.831-4.247 2.831-5.426 3.598-6.842 3.775a28.2 28.2 0 0 1-12.976 3.185 31.26 31.26 0 0 1-28.901-20.172c-3.362-9.732-0.177-19.582 8.493-26.482 19.582-15.394 42.466-23.592 66.059-23.592 21.587 0 42.997 6.901 61.871 19.936a27.956 27.956 0 0 1 10.97 32.263c-3.775 12.15-13.802 20.289-24.949 20.289v0.058z m149.517 491.902A207.792 207.792 0 0 1 625.58 620.8a228.133 228.133 0 0 1-110.294 27.839c-33.383 0-66.943-7.078-97.142-20.466a222.66 222.66 0 0 1-81.394-61.222c-41.169-49.367-58.568-120.852-46.418-191.098 11.619-67.533 48.6-124.214 101.447-155.533a27.315 27.315 0 0 1 14.037-4.011 28.31 28.31 0 0 1 26.541 21.705c3.523 11.792-1.66 24.445-12.445 30.375-70.659 41.877-90.772 142.734-68.831 212.214 21.292 67.356 86.466 112.654 162.198 112.654 31.909 0 62.992-8.257 89.828-23.887 36.332-21.115 62.284-56.327 73.136-99.147a177.358 177.358 0 0 0-19.464-135.008c-9.614-15.748-22.059-30.316-34.091-44.354-7.727-8.965-15.748-18.284-23.003-27.898-12.386-16.515-16.161-34.209-19.877-51.255l-2.005-9.142-159.367-42.407c-13.333-3.19-21.933-16.142-19.7-29.667 1.651-12.445 11.324-25.126 26.718-25.126a29.837 29.837 0 0 1 7.668 1.062l124.332 33.088c4.6 1.239 9.142 2.359 13.448 3.421 34.032 8.375 60.868 15.04 63.994 64.171 1.121 17.34 15.984 33.619 29.137 47.834 3.362 3.716 6.547 7.137 9.437 10.617 15.807 18.461 35.448 43.587 47.893 73.254 26.306 62.638 21.646 132.884-12.976 197.763l0.002 0.058zM237.72 417.905c0 15.335-12.386 27.839-27.721 27.839h-54.027c-15.359 0-27.81-12.451-27.81-27.81 0-15.359 12.451-27.81 27.81-27.81h53.909c15.335 0 27.721 12.445 27.721 27.78h0.118z m628.974 27.839h-53.85c-15.359 0-27.81-12.451-27.81-27.81 0-15.359 12.451-27.81 27.81-27.81h53.85c15.359 0 27.81 12.451 27.81 27.81-0.001 15.359-12.451 27.81-27.81 27.81zM279.597 611.658c11.578-10.117 29.165-8.932 39.281 2.646 9.167 10.491 9.167 26.144 0 36.636l-38.102 38.22c-11.578 10.117-29.165 8.932-39.281-2.646-9.167-10.491-9.167-26.144 0-36.636l38.102-38.22z m465.596-387.506c-11.578 10.117-29.165 8.932-39.281-2.646-9.167-10.491-9.167-26.144 0-36.636l38.102-38.161c11.578-10.117 29.165-8.932 39.281 2.646 9.167 10.491 9.167 26.144 0 36.636l-38.102 38.161zM512.395 687.566c15.335 0 27.721 12.445 27.721 27.78v53.968c-0.707 15.326-13.704 27.178-29.03 26.471-14.337-0.661-25.81-12.134-26.471-26.471v-53.968c0-15.335 12.386-27.78 27.721-27.78h0.059zM318.878 224.152c-10.804 10.847-28.356 10.882-39.203 0.078l-0.078-0.078-38.102-38.161c-10.847-10.847-10.847-28.434 0-39.281 10.847-10.847 28.434-10.847 39.281 0l38.102 38.102c10.852 10.868 10.852 28.472 0 39.34z m387.034 387.506c10.804-10.847 28.356-10.882 39.203-0.078l0.078 0.078 38.102 38.161c10.847 10.847 10.847 28.434 0 39.281-10.847 10.847-28.434 10.847-39.281 0l-38.102-38.102c-10.852-10.869-10.852-28.472 0-39.34z"  horiz-adv-x="1024" />

    
    <glyph glyph-name="shouye" unicode="&#59551;" d="M971.157333 739.498667L981.333333 789.269333H535.936C189.141333 793.130667 43.818667 582.421333 42.666667 377.429333c-0.64-115.946667 35.029333-214.933333 105.152-286.250666C218.474667 19.306667 319.381333-21.333333 431.978667-21.333333c111.36 0 207.36 38.698667 277.632 109.930666 66.197333 67.072 104.746667 161.002667 109.909333 266.581334 118.933333 69.056 149.973333 203.349333 150.933333 209.386666l9.514667 40.362667h-59.882667c18.645333 30.186667 39.530667 78.016 51.072 134.570667z m-45.376-177.237334c-9.024-30.186667-42.261333-120.576-127.68-170.176l-20.053333-11.648-1.130667-23.168c-4.629333-94.805333-39.317333-179.584-97.685333-238.698666C616.469333 54.954667 530.965333 21.333333 431.978667 21.333333c-100.373333 0-190.485333 35.413333-253.738667 99.754667C116.885333 183.509333 84.757333 272.064 85.333333 377.194667c0.554667 98.261333 37.162667 188.074667 103.082667 252.885333C266.048 706.453333 382.890667 746.666667 527.210667 746.666667c2.901333 0 5.802667 0 8.725333-0.064H929.066667c-9.024-43.434667-25.898667-87.893333-45.269334-119.253334l-40.234666-65.066666h82.218666z m-450.432-111.872h-105.472c-68.949333 0-125.056-60.096-125.056-133.930666 0-73.856 56.106667-133.930667 125.056-133.930667h105.472c68.949333 0 125.013333 60.074667 125.013334 133.930667 0 73.813333-56.064 133.930667-125.013334 133.930666z m0-225.194666h-105.472c-45.44 0-82.389333 40.938667-82.389333 91.264 0 50.325333 36.970667 91.264 82.389333 91.264h105.472c45.418667 0 82.346667-40.96 82.346667-91.264 0-50.346667-36.928-91.264-82.346667-91.264zM288.512 485.333333c0 18.666667-15.018667 33.770667-33.536 33.770667-18.496 0-33.514667-15.104-33.514667-33.770667 0-18.645333 15.018667-33.770667 33.493334-33.770666 18.538667 0 33.557333 15.125333 33.557333 33.770666z m324.053333 33.792c-18.517333 0-33.493333-15.146667-33.493333-33.792 0-18.666667 14.976-33.792 33.493333-33.792 18.517333 0 33.514667 15.146667 33.514667 33.792 0 18.666667-14.997333 33.792-33.493333 33.792z m-234.666666-180.16c-12.352 0-22.357333-10.069333-22.357334-22.506666s10.026667-22.528 22.357334-22.528c12.373333 0 22.336 10.090667 22.336 22.528a22.4 22.4 0 0 1-22.336 22.506666z m89.386666 0c-12.330667 0-22.336-10.069333-22.336-22.506666s10.005333-22.528 22.357334-22.528c12.352 0 22.336 10.090667 22.336 22.528a22.4 22.4 0 0 1-22.336 22.506666z"  horiz-adv-x="1024" />

    
    <glyph glyph-name="xiezuo" unicode="&#58887;" d="M661.6 544.6c-40.6 0-85.2 5.5-131.2 18-55.4 15-112.1 39.3-164.2 69-0.8 0.3-1.5 0.8-2.1 1.2-81.1 46.5-150.8 105.9-186.1 163-4.3 7-2.2 16.2 4.8 20.5 7 4.4 16.2 2.2 20.5-4.8 30.7-49.7 89.6-101.3 159.3-143.6 7.2 30.3 21.5 90.4 32 138.9 1.2 5.3 5.1 9.6 10.3 11.1 68.4 20.3 141.9 16.9 238.5-10.8C778.1 768.5 861.7 676.9 846.6 621c-12-44-86.5-76.4-185-76.4z m-272 107.8c47.4-26 98.5-47.4 148.6-61 143.2-38.8 268.3-4.1 279.6 37.4 8.4 31-56.2 113.4-182.6 149.7-86.7 24.9-153 29.1-213.3 13.2-11.5-52.3-26.4-114.6-32.3-139.3zM278.7-33c-1.5 0-3 0.2-4.5 0.7-5.6 1.8-9.7 6.7-10.4 12.6-0.3 3-33.4 302.9-88.1 821.9-0.9 8.2 5.1 15.5 13.3 16.4 8.2 0.8 15.5-5.1 16.4-13.3 44.2-419.6 74.3-696 84.4-788 211.6 241.8 510.3 584.6 522.1 601.6 4 7.2 12.8 9.5 20 5.5 7.2-3.9 9.7-13.4 5.7-20.7-7.8-14.4-421.2-487.1-547.7-631.6-2.8-3.3-7-5.1-11.2-5.1zM436.9-63c-53.2 0-106.3 8.9-156.6 26.7l-19 6.7c-11.7 4.1-17.8 16.9-13.6 28.6 4.1 11.7 16.9 17.8 28.6 13.6l19-6.7c85.9-30.4 181.1-32.2 268.1-5l38.5 12c11.8 3.7 24.3-2.9 28-14.7 3.7-11.8-2.9-24.3-14.7-28l-38.5-12c-45.3-14.1-92.5-21.2-139.8-21.2zM270.1-31l-31.4 288.8s66.1-62.9 120.2-70.6c54.1-7.6 108.3-5.6 108.3-5.6L270.1-31zM312.2 320c-3.2 0-6.5 1.1-9.1 3.1L228 381c-3.2 2.4-5.2 6-5.7 10l-23.8 196.2c-0.7 5.7 2 11.3 6.8 14.4 4.9 3.1 11.1 3.1 16 0l133.8-84.8c5.2-3.3 7.9-9.5 6.6-15.6l-35-169.3c-1-5-4.6-9.2-9.4-11-1.6-0.6-3.4-0.9-5.1-0.9z m-61.1 80.8l51.2-39.5 28.1 135.8-98.5 62.4 19.2-158.7zM645.4 385.3c-0.3 0-0.7 0-1 0.1-0.6 0.1-58.7 8.2-123.1 26.1-64.9 18-137.8 60.2-140.9 62-3.6 2.1-4.8 6.6-2.7 10.2 2.1 3.6 6.6 4.8 10.2 2.7 0.7-0.4 74.4-43 137.4-60.5 63.5-17.6 120.6-25.6 121.2-25.7 4.1-0.6 6.9-4.3 6.4-8.4-0.7-3.8-3.8-6.5-7.5-6.5zM412.3 352.1c-1 0-2.1 0.2-3.1 0.7-23.8 11-39.7 19.9-40.4 20.3-3.6 2-4.9 6.6-2.9 10.2 2 3.6 6.5 4.9 10.1 2.9 0.2-0.1 16.2-9 39.4-19.8 3.7-1.7 5.4-6.2 3.6-9.9-1.2-2.8-3.9-4.4-6.7-4.4zM539.6 318.6c-4 0-7.3 3.2-7.4 7.2-0.1 4.1 3.1 7.6 7.2 7.7 24.5 0.8 42.6 5.2 42.8 5.2 4 1 8-1.5 9-5.5s-1.5-8-5.5-9c-0.8-0.2-19.7-4.8-45.9-5.7 0 0.1-0.1 0.1-0.2 0.1z"  horiz-adv-x="1024" />

    
    <glyph glyph-name="classify_icon" unicode="&#58968;" d="M381.790625 852.75h-234.375A104.278125 104.278125 0 0 1 43.25 748.584375v-156.253125a104.278125 104.278125 0 0 1 104.165625-104.165625h234.375a104.278125 104.278125 0 0 1 104.165625 104.165625V748.584375A104.278125 104.278125 0 0 1 381.790625 852.75z m52.0875-260.41875a52.14375 52.14375 0 0 0-52.0875-52.0875h-234.375a52.14375 52.14375 0 0 0-52.0875 52.0875V748.584375a52.14375 52.14375 0 0 0 52.0875 52.0875h234.375a52.14375 52.14375 0 0 0 52.0875-52.0875zM381.790625 436.0875h-234.375A104.278125 104.278125 0 0 1 43.25 331.9125v-312.496875A104.26875 104.26875 0 0 1 147.415625-84.75h234.375a104.26875 104.26875 0 0 1 104.165625 104.165625V331.9125a104.278125 104.278125 0 0 1-104.165625 104.175z m52.0875-416.6625a52.153125 52.153125 0 0 0-52.0875-52.0875h-234.375a52.153125 52.153125 0 0 0-52.0875 52.0875V331.9125A52.14375 52.14375 0 0 0 147.415625 384h234.375a52.14375 52.14375 0 0 0 52.0875-52.0875zM876.584375 279.834375h-234.375a104.278125 104.278125 0 0 1-104.165625-104.165625v-156.253125A104.26875 104.26875 0 0 1 642.209375-84.75h234.375A104.26875 104.26875 0 0 1 980.75 19.415624999999977V175.66875000000005a104.278125 104.278125 0 0 1-104.165625 104.165625z m52.0875-260.41875a52.153125 52.153125 0 0 0-52.0875-52.0875h-234.375a52.153125 52.153125 0 0 0-52.0875 52.0875V175.66875000000005a52.14375 52.14375 0 0 0 52.0875 52.0875h234.375a52.14375 52.14375 0 0 0 52.0875-52.0875zM876.584375 852.75h-234.375a104.278125 104.278125 0 0 1-104.165625-104.165625v-312.496875a104.278125 104.278125 0 0 1 104.165625-104.175h234.375A104.278125 104.278125 0 0 1 980.75 436.0875V748.584375A104.278125 104.278125 0 0 1 876.584375 852.75z m52.0875-416.6625A52.14375 52.14375 0 0 0 876.584375 384h-234.375a52.14375 52.14375 0 0 0-52.0875 52.0875V748.584375a52.14375 52.14375 0 0 0 52.0875 52.0875h234.375a52.14375 52.14375 0 0 0 52.0875-52.0875z"  horiz-adv-x="1024" />

    
    <glyph glyph-name="xihuan" unicode="&#58890;" d="M512.75-52.3125c-24.46875 0-46.96875 6.84375-67.03125 20.34375C335.28125 23.0625 32 230.90625 32 488.53125 32 665.25 175.8125 809.0625 352.53125 809.0625c56.71875 0 111.5625-14.8125 160.21875-43.03125 48.65625 28.21875 103.59375 43.03125 160.21875 43.03125 176.71875 0 320.53125-143.8125 320.53125-320.53125 0-257.625-303.28125-465.5625-413.71875-520.5-20.0625-13.5-42.5625-20.34375-67.03125-20.34375zM352.53125 728.90625c-132.5625 0-240.375-107.8125-240.375-240.375 0-109.875 75.5625-211.125 138.9375-276.65625 80.71875-83.4375 175.78125-145.5 232.59375-173.25l5.71875-3.46875c14.15625-10.125 32.4375-10.125 46.59375 0l5.71875 3.46875C598.625 66.46875 693.6875 128.4375 774.3125 211.875c63.375 65.53125 138.9375 166.6875 138.9375 276.65625 0 132.5625-107.8125 240.375-240.375 240.375-49.3125 0-96.75-15-137.34375-43.21875L512.75 669.65625l-22.96875 16.03125c-40.5 28.3125-88.03125 43.21875-137.25 43.21875z"  horiz-adv-x="1025" />

    
    <glyph glyph-name="shoucang" unicode="&#58882;" d="M786.309939-107.349333c-11.093333 0-23.893333 3.754667-34.986666 9.216l-239.616 119.808L270.043273-98.133333c-23.893333-12.970667-55.296-11.093333-77.482667 5.461333s-34.986667 46.08-29.525333 73.728l49.834666 258.048L23.088606 416.085333C2.779273 436.394667-4.559394 467.797333 2.779273 493.568c9.216 27.648 31.402667 47.957333 60.757333 51.541333l263.68 47.957334L445.317939 832.853333c12.970667 25.770667 38.741333 42.325333 66.389334 42.325334S567.003273 858.624 578.096606 832.853333l117.930667-239.616 263.68-46.08c27.648-3.754667 51.541333-23.893333 59.050666-51.541333 9.216-27.648 1.877333-57.173333-18.432-77.482667L810.203273 239.104l47.957333-258.048c5.461333-29.525333-7.338667-57.173333-29.525333-73.728-10.922667-9.216-25.770667-14.677333-42.325334-14.677333z"  horiz-adv-x="1024" />

    
    <glyph glyph-name="page-view" unicode="&#58997;" d="M967.424 414.9248c-41.5744 69.9392-191.7952 286.9248-454.4 286.9248-260.8128 0-414.208-220.0064-455.2192-287.6416a41.8304 41.8304 0 0 1-1.792-40.2432c34.0992-68.9152 164.9152-286.5664 457.0112-286.5664 263.3728 0 412.928 215.04 454.4 284.5696a41.984 41.984 0 0 1 0 42.9568z m-453.6832-212.2752c-112.6912 0-194.1504 84.0192-194.1504 192 0 108.032 81.4592 192 194.1504 192 112.6912 0 194.0992-83.968 194.0992-192 0-107.9808-81.4592-192-194.0992-192z m0 309.7088C447.9488 512.2048 394.752 457.6768 394.752 394.7008s53.1968-117.6576 118.9376-117.6576 118.9376 54.6816 118.9376 117.6576c0.0512 63.0272-53.1456 117.76-118.8864 117.6576z"  horiz-adv-x="1024" />

    
    <glyph glyph-name="zanwuneirong" unicode="&#59818;" d="M173.376694 686.397751V732.248593c0 21.831602 15.286279 43.664803 37.117881 45.850842l8.73296 2.179642V819.582997c0 28.378524 24.017641 52.397764 52.402562 52.397763v2.186039h264.184452c28.384921 0 52.40416-24.01924 52.40416-52.40416v-37.117882h371.170815c28.384921 0 52.40416-24.017641 52.404161-52.396164v-45.850842h19.65196V730.062554c0 41.483562-32.750601 74.235762-74.235763 74.235763H607.870669V821.762639c0 41.485161-32.750601 74.235762-74.235763 74.235762h-262.004809c-41.483562 0-74.234163-32.750601-74.234164-74.235762v-21.831602c-28.384921-10.918999-48.03848-37.117881-48.038479-67.682444v-45.850842h24.01924zM1184.276453-82.150757c0-6.551719-6.546922-13.105038-13.098641-13.105038h-69.868483c-6.546922 0-13.098641 6.554918-13.098641 13.105038 0 6.546922 6.553319 13.10024 13.098641 13.10024h69.868483c6.553319 0 13.098641-6.553319 13.098641-13.10024z m0 0M88.228329 789.012037c-6.553319 0-13.10024 6.553319-13.100241 13.098642V871.98076c0 6.551719 6.546922 13.098641 13.100241 13.098642 6.546922 0 13.098641-6.546922 13.098641-13.098642V802.110679c-2.186039-6.545323-6.551719-13.098641-13.098641-13.098642z m0 0M134.07917 837.048918c0-6.553319-6.553319-13.098641-13.10024-13.098642H53.29009c-6.546922 0-13.098641 6.545323-13.098642 13.098642 0 6.546922 6.551719 13.098641 13.098642 13.098641h69.870081c6.551719 0 10.918999-6.551719 10.918999-13.098641z m0 0M1212.661374 647.093831c-6.546922 0-10.912603 4.365681-10.912603 10.919v43.664803c0 6.551719 4.365681 10.918999 10.912603 10.918999 6.553319 0 10.918999-4.36728 10.918999-10.918999v-43.664803c-2.186039-6.553319-6.551719-10.918999-10.918999-10.919z m0-93.881325c-6.546922 0-10.912603 4.365681-10.912603 10.912603v43.671199c0 6.545323 4.365681 10.912603 10.912603 10.912603 6.553319 0 10.918999-4.36728 10.918999-10.912603v-43.671199c-2.186039-6.546922-6.551719-10.912603-10.918999-10.912603z m-15.278284 78.595046c0-6.545323-4.365681-10.912603-10.918999-10.912602h-43.6712c-6.546922 0-10.912603 4.36728-10.912602 10.912602 0 6.553319 4.365681 10.918999 10.912602 10.919h43.6712c6.551719 0 10.918999-6.551719 10.918999-10.919z m93.881326 0c0-6.545323-4.365681-10.912603-10.912603-10.912602h-43.6712c-6.553319 0-10.918999 4.36728-10.918999 10.912602 0 6.553319 4.365681 10.918999 10.918999 10.919h43.6712c4.365681 0 10.912603-6.551719 10.912603-10.919z m0 0M116.613249 199.499616L77.309329 269.369697 7.439248 308.675216l69.870081 39.295924 39.30392 69.868483 39.297523-69.868483 69.870082-39.295924-69.870082-39.305519-39.297523-69.870081z m-63.323159 109.1756l41.485161-21.837998 21.837998-41.485161 21.831602 41.485161 41.485161 21.837998-41.485161 21.830003-21.831602 41.485161-21.837998-41.485161-41.485161-21.830003z m0 0M116.613249 199.499616L77.309329 269.369697 7.439248 308.675216l69.870081 39.295924 39.30392 69.868483 39.297523-69.868483 69.870082-39.295924-69.870082-39.305519-39.297523-69.870081z m-63.323159 109.1756l41.485161-21.837998 21.837998-41.485161 21.831602 41.485161 41.485161 21.837998-41.485161 21.830003-21.831602 41.485161-21.837998-41.485161-41.485161-21.830003z m0 0M1096.94205 795.565356l4.36568 8.732961 6.553319-8.732961 8.73296-6.553319-8.73296-4.36728-6.553319-10.912602-4.36568 10.912602-10.912603 4.36728 10.912603 6.553319z m0 0M1101.309329 751.894156l-13.098641 24.01924-24.012843 13.098641 24.012843 15.28628 13.098641 24.01764 13.105038-24.01764 26.198882-15.28628-26.198882-13.098641-13.105038-24.01924z m0 0M363.33178 498.622307l0 0z m0 0M389.530662 461.504426c-19.65196 0-37.117881 17.472318-37.117881 37.117881 0 19.65196 17.465921 37.117881 37.117881 37.117881s37.117881-17.465921 37.117881-37.117881c0-19.645563-17.465921-37.117881-37.117881-37.117881z m0 52.40416c-8.732961 0-15.279883-6.553319-15.279883-15.286279s6.546922-15.279883 15.279883-15.279883 15.286279 6.546922 15.286279 15.279883-6.553319 15.286279-15.286279 15.286279z m0 0M793.453678 461.504426c-19.645563 0-37.117881 17.472318-37.117881 37.117881 0 19.65196 17.472318 37.117881 37.117881 37.117881 19.65196 0 37.117881-17.465921 37.117881-37.117881 0-19.645563-15.279883-37.117881-37.117881-37.117881z m0 52.40416c-8.732961 0-15.279883-6.553319-15.279883-15.286279s6.546922-15.279883 15.279883-15.279883 15.286279 6.546922 15.286279 15.279883-6.553319 15.286279-15.286279 15.286279z m0 0M1037.992566 697.310354H147.177812c-21.831602 0-39.30392-6.546922-52.402561-21.831602-13.10024-15.286279-19.647162-32.7522-17.465922-52.40416l25.575214-253.765987 13.728706 24.514976 8.425924-15.046406-25.898242 246.485054c-2.179642 13.098641 2.186039 26.197283 10.919 34.930244 8.732961 10.918999 19.65196 15.286279 34.931842 15.286279v2.179642h895.186832c13.098641 0 26.198882-4.365681 34.931843-15.279883 8.732961-8.731361 13.098641-21.831602 10.918999-34.936639l-10.453647-99.89733a198.09796 198.09796 0 0 0 21.583734-6.742018l10.701515 102.272068c0 19.65196-4.365681 39.30392-17.465921 52.40416-13.098641 13.098641-32.750601 21.831602-52.402562 21.831602zM1138.427211-31.932636c-6.546922 0-13.098641-6.553319-13.098642-13.10024v-69.866884c0-6.554918 6.553319-13.10024 13.098642-13.10024 6.553319 0 10.918999 4.36728 13.105037 13.10024v69.866884c0 6.548521-6.553319 13.10024-13.105037 13.10024zM763.731867 2.997608h213.129975c34.931842 0 67.682444 26.198882 72.049724 56.769841l8.235625 78.710185a199.287728 199.287728 0 0 0-22.51284-2.150858l-7.555986-72.192048c-2.186039-19.65196-26.205278-37.117881-50.216523-37.117881H773.32677M646.200706 27.018446H208.314933c-26.205278 0-48.03688 17.465921-50.218122 37.117882L137.502952 260.136203l-19.893432-36.946772 16.46965-163.421982c4.365681-30.570959 37.117881-56.769841 72.048125-56.769841H641.403255M1027.079964 125.27025c-56.769841 0-109.174001 21.833201-148.471525 61.132324-39.30392 39.302321-61.135522 91.701683-61.135521 148.471524s21.831602 109.166006 61.135521 148.469925c39.297523 39.299122 91.701683 61.130724 148.471525 61.130725 56.763444 0 109.167605-21.831602 148.465128-61.130725 39.30392-39.30392 61.135522-91.700084 61.135521-148.469925s-21.831602-109.169204-61.135521-148.471524c-39.299122-39.299122-93.882925-61.132323-148.465128-61.132324z m0 399.557335c-50.216522 0-98.253403-19.65196-133.185246-54.583802-34.938239-34.938239-54.590199-82.968723-54.590199-133.185245 0-50.222919 19.65196-98.255002 54.590199-133.191642 34.931842-34.933442 82.968723-54.583802 133.185246-54.583803s98.248605 19.650361 133.185245 54.583803c34.931842 34.93664 54.583802 82.968723 54.583802 133.191642 0 50.216522-19.65196 98.247006-54.583802 133.185245-37.117881 34.931842-82.968723 54.583802-133.185245 54.583802z m0 0M860.186226 238.699591a61.13872 61.13872 0 0 1-18.05121-11.497892L652.533342 45.338314c-27.089609-27.091208-30.959553-67.720823-5.808115-92.872262 23.218065-23.214867 65.784252-21.278296 92.867464 5.806516L921.462473 147.874242a52.383371 52.383371 0 0 1 5.038923 5.865684c-36.041653 18.12637-61.332217 49.037949-66.31517 84.959665zM676.806846-12.712447c-11.427529 0-19.092257 7.816647-19.092257 17.465922 0 9.644476 7.666327 17.46752 19.092257 17.46752s17.493107-7.823044 17.493107-17.46752c0-9.649274-6.067177-17.465921-17.493107-17.465922z m136.298792 137.982697l-93.881326-93.887722c-4.372077-6.551719-15.286279-6.551719-21.837998 0-6.546922 6.553319-6.546922 15.287878 0 21.833201l93.887722 93.887722c6.546922 6.545323 15.286279 6.545323 21.831602 0 6.553319-6.553319 6.553319-15.286279 0-21.833201zM933.192242 444.038505c-2.186039 0-2.186039 0 0 0-6.553319 6.553319-4.365681 15.286279 2.186038 19.651959 63.316763 45.850842 148.465128 39.299122 205.234969-15.28468 4.365681-4.36728 4.365681-13.10024 0-19.645563-4.365681-4.36728-13.098641-4.36728-19.65196 0-45.850842 45.849243-117.900565 50.216522-170.303126 13.098641-6.546922-4.365681-13.10024-4.365681-17.465921 2.179643z m0 0M874.241159 347.97114c-2.186039 2.186039-4.365681 6.554918-4.36568 10.919 2.179642 15.281482 6.546922 30.564563 15.279882 45.850841 2.186039 6.546922 10.918999 8.732961 17.472318 6.546922 6.546922-2.179642 8.732961-10.912603 6.546922-17.465921-6.546922-10.912603-10.912603-24.01924-13.098641-37.117881-2.179642-6.546922-8.732961-13.097042-15.28628-10.911004-2.181241-0.001599-4.36728-0.001599-6.548521 2.178043z m0 0M739.607084 267.466708h-268.657276a7.995752 7.995752 0 1 0 0 15.991505h268.657276c4.416854 0 7.995752-3.578899 7.995752-7.995752s-3.578899-7.995752-7.995752-7.995753z"  horiz-adv-x="1378" />

    
    <glyph glyph-name="xiaoxi" unicode="&#58924;" d="M261.09090875 427.63636406C230.54545437 427.63636406 206.54545438 403.63636406 206.54545438 373.09090875000004S230.54545437 318.54545438 261.09090875 318.54545438s54.54545437 24 54.54545531 54.54545437-24 54.54545437-54.54545531 54.54545531zM512 427.63636406c-30.54545437 0-54.54545437-24-54.54545437-54.54545531S481.45454563 318.54545438 512 318.54545438s54.54545437 24 54.54545437 54.54545437S542.54545437 427.63636406 512 427.63636406z m0 436.36363594C245.81818156 864 32 650.18181844 32 384c0-257.45454562 202.90909125-469.09090875 460.36363594-480H773.81818156c21.81818156 0 43.63636406 21.81818156 43.63636406 43.63636406v65.45454469c106.90909125 87.27272719 174.54545437 220.36363594 174.54545438 370.90909125C992 650.18181844 778.18181844 864 512 864z m264-826.90909125l-2.18181844-2.1818175v-45.8181825c0-43.63636406-4.36363594-43.63636406-43.63636312-43.63636313H512C272-52.363635939999995 75.63636406 144 75.63636406 384S272 820.36363594 512 820.36363594s436.36363594-196.36363594 436.36363594-436.36363594c0-141.81818156-67.63636406-266.18181844-172.36363594-346.90909125zM762.90909125 427.63636406c-30.54545437 0-54.54545437-24-54.54545531-54.54545531s24-54.54545437 54.54545531-54.54545437 54.54545437 24 54.54545438 54.54545437-24 54.54545437-54.54545438 54.54545531z"  horiz-adv-x="1024" />

    
    <glyph glyph-name="shengyin" unicode="&#59658;" d="M459.43279999 679.88178921c-5.1744 5.1744-11.87759999 7.9968-19.16879999 7.99680001-7.2912 0-14.11199999-2.8224-19.1688-7.99680001-5.1744-5.1744-7.9968-11.87759999-7.99679999-19.16879999 0-7.2912 2.8224-13.9944 7.99679999-19.1688 68.6784-68.44320001 106.428-159.4656 106.428-256.36800001s-37.7496-187.92480001-106.428-256.36799999c-5.1744-5.1744-7.9968-11.87759999-7.99679999-19.16880001s2.8224-13.9944 7.99679999-19.16879999 11.87759999-7.9968 19.1688-7.99680001c7.2912 0 14.11199999 2.8224 19.16879999 7.99680001 39.86640001 39.7488 70.7952 86.20079999 91.84560001 137.82719999 20.3448 49.8624 30.576 102.6648 30.576 156.76080001s-10.34880001 106.7808-30.576 156.7608c-21.168 51.9792-51.9792 98.3136-91.84560001 138.06239999z m-224.73359999-305.5248c-2.94-2.94-6.82079999-4.58639999-11.05439999-4.58639999-4.2336 0-7.9968 1.5288-11.05440001 4.58639999-2.94 2.94-4.58639999 6.82079999-4.58639999 10.93680002 0 4.2336 1.5288 7.9968 4.58639999 10.93679999 2.94 2.94 6.82079999 4.58639999 11.05440001 4.58639999 4.116 0 8.11440001-1.5288 11.05439999-4.58639999 3.0576-3.0576 4.58639999-6.7032 4.5864-10.93679999-0.1176-4.2336-1.76400001-7.9968-4.5864-10.93680002zM223.64480001 455.03058921c-18.6984 0-36.2208-7.2912-49.50960001-20.3448-13.17119999-13.17119999-20.46239999-30.6936-20.46240001-49.27439999 0-18.58080001 7.2912-36.1032 20.46240001-49.2744s30.8112-20.3448 49.50960001-20.3448c18.6984 0 36.2208 7.2912 49.50959999 20.3448 13.17119999 13.17119999 20.46239999 30.6936 20.4624 49.2744 0 18.58080001-7.2912 36.1032-20.4624 49.27439999-13.28880001 13.0536-30.8112 20.3448-49.50959999 20.3448z m597.87839999 196.39200001c-35.6328 87.7296-88.2 166.52159999-155.82 234.024-5.1744 5.1744-11.87759999 7.9968-19.1688 7.9968-7.2912 0-14.11199999-2.8224-19.1688-7.9968-10.584-10.584-10.584-27.75359999 0-38.3376 62.5632-62.328 111.0144-135.12240001 143.9424-216.1488 31.8696-78.204 47.9808-160.9944 47.9808-245.78400001 0-84.90719999-16.2288-167.58-47.9808-245.784-32.928-81.0264-81.3792-153.7032-143.9424-216.1488-10.584-10.584-10.584-27.75359999 0-38.33759999 5.1744-5.1744 11.87759999-7.9968 19.1688-7.99680001 7.2912 0 14.11199999 2.8224 19.1688 7.99680001 67.7376 67.50240001 120.18720001 146.2944 155.82 234.024 34.5744 84.7896 51.9792 174.2832 51.97920001 266.24639999-0.1176 91.9632-17.5224 181.57440001-51.97920001 266.24640001z"  horiz-adv-x="1024" />

    
    <glyph glyph-name="tijiao" unicode="&#58886;" d="M992.95884 388.058922c0-121.719333-44.57564-232.581226-118.713882-317.574065-12.239321-14.088939-25.173849-27.484093-39.032474-40.188307-86.148672-78.987624-201.169006-127.261077-327.27425-127.261077s-241.125578 48.273453-327.27425 127.261077c-13.858625 12.704214-26.791731 26.097947-39.032474 40.188307-74.141086 84.992839-118.716726 195.856154-118.716725 317.574065 0 267.915887 217.106141 485.022028 485.022028 485.022028S992.95884 655.973388 992.95884 388.058922zM507.936813-119.875047c-127.299463 0-249.030169 47.343668-342.767818 133.274822-14.074722 12.923154-27.833829 27.067539-40.846549 42.064937C44.161928 147.35558600000002 0 265.47520199999997 0 388.061766 0 668.148733 227.851267 896 507.936813 896c280.089811 0 507.936813-227.851267 507.936812-507.938234 0-122.586563-44.161928-240.70618-124.345193-332.641127-12.992817-14.953326-26.750502-29.097711-40.823802-42.020864-93.73907-85.931154-215.468355-133.274822-342.767817-133.274822z m0 970.044056c-254.802227 0-462.105821-207.303594-462.105822-462.105822 0-111.488858 40.147078-218.94012 113.068355-302.507004 11.908068-13.713613 24.42604-26.615441 37.259628-38.368545 85.235948-78.172996 195.981263-121.22885 311.777839-121.22885 115.797998 0 226.543313 43.055854 311.777838 121.22885 12.833587 11.754525 25.35156 24.654932 37.238303 38.321629 72.942602 83.6138 113.088259 191.065062 113.088258 302.55392 0.002843 254.802227-207.299329 462.105821-462.104399 462.105822zM732.658942 443.487737H283.216105c-39.928138 0-72.295734 32.369017-72.295733 72.295733v78.288153c0 39.928138 32.367595 72.295734 72.295733 72.295734h449.441415c39.92956 0 72.298577-32.367595 72.298577-72.295734v-78.288153c0-39.926716-32.367595-72.295734-72.297155-72.295733zM732.658942 620.539209c14.59506 0 26.467586-11.873947 26.467586-26.467586v-78.288153c0-14.593638-11.873947-26.467586-26.467586-26.467586H283.217527c-14.596482 0-26.469007 11.873947-26.469008 26.467586v78.288153c0 14.593638 11.872526 26.467586 26.469008 26.467586h449.441415z m0 45.829569H283.217527c-39.928138 0-72.297155-32.369017-72.297155-72.295733v-78.289575c0-39.926716 32.369017-72.295734 72.297155-72.295733h449.439993c39.926716 0 72.298577 32.369017 72.298577 72.295733v78.289575c0 39.926716-32.370439 72.295734-72.297155 72.295733M874.244958 492.191961v-417.835845c0-17.346029-6.161601-34.382129-18.210415-46.85745a478.506427 478.506427 0 0 0-20.822059-20.297455c-86.148672-78.987624-201.169006-127.258234-327.27425-127.258234s-241.125578 48.27061-327.27425 127.258234a478.540547 478.540547 0 0 0-20.82348 20.297455c-12.048815 12.475322-18.208994 29.514265-18.208994 46.85745V492.191961c0 38.267605 31.021256 69.288861 69.288862 69.288861h594.037147c38.264762 0 69.287439-31.021256 69.287439-69.288861zM804.956097 515.651253c12.934527 0 23.460713-10.524764 23.460713-23.460713v-417.834424c0-6.027962-1.949136-11.504308-5.351237-15.02441a430.889794 430.889794 0 0 0-18.826007-18.351163c-81.030591-74.294628-186.261174-115.209419-296.302753-115.209418-110.043001 0-215.269318 40.91479-296.309862 115.217949a432.382568 432.382568 0 0 0-18.823164 18.348319c-3.396415 3.515837-5.345551 8.990762-5.345551 15.018723v417.834424c0 12.935949 10.526186 23.460713 23.460714 23.460713h594.037147z m0 45.829569H210.920372c-38.267605 0-69.288861-31.021256-69.288862-69.288861v-417.835845c0-17.346029 6.160179-34.382129 18.210416-46.85745a475.299096 475.299096 0 0 1 20.82348-20.297455c86.148672-78.990467 201.167584-127.261077 327.272828-127.261077 126.103822 0 241.124156 48.27061 327.272829 127.261077a475.264976 475.264976 0 0 1 20.822058 20.297455c12.051658 12.475322 18.210416 29.511422 18.210415 46.85745v417.834424c0.001422 38.267605-31.021256 69.290283-69.287439 69.290282M279.863762 296.827712h447.288978-447.288978zM727.149897 273.91150500000003H279.863762c-12.653033 0-22.916206 10.263174-22.916206 22.916207 0 12.65019 10.263174 22.913363 22.916206 22.913363h447.286135c12.653033 0 22.916206-10.263174 22.916206-22.913363 0-12.654455-10.263174-22.916206-22.916206-22.916207zM279.863762 418.083574h447.288978-447.288978zM727.149897 395.167368H279.863762c-12.653033 0-22.916206 10.261752-22.916206 22.914785s10.263174 22.914785 22.916206 22.914784h447.286135c12.653033 0 22.916206-10.261752 22.916206-22.914784s-10.263174-22.914785-22.916206-22.914785zM279.863762 161.71464600000002H498.102989 279.863762zM498.102989 138.80839100000003H279.863762c-12.653033 0-22.916206 10.26033-22.916206 22.913363s10.263174 22.916206 22.916206 22.916207H498.102989c12.653033 0 22.914785-10.263174 22.914785-22.916207S510.756022 138.80839100000003 498.102989 138.80839100000003zM838.677141 64.70853399999999z m-192.708535 0c0-68.846716 36.730759-132.467303 96.352135-166.89066 59.624219-34.423358 133.085737-34.423358 192.708534 0 59.624219 34.423358 96.354978 98.043945 96.354978 166.89066 0 106.429067-86.279467 192.708534-192.708534 192.708535s-192.707113-86.278046-192.707113-192.708535M821.811643-22.303102999999965a22.896303 22.896303 0 0 0-16.194461 6.723168l-57.558504 57.558504c-8.95522 8.932473-8.95522 23.45787 0 32.387499 8.929629 8.979388 23.455027 8.979388 32.387499 0l39.832885-39.807294 79.844903 95.814736c8.0297 9.72151 22.488278 11.073536 32.255282 2.95427 9.72151-8.12211 11.050789-22.555097 2.932944-32.276608l-95.882977-115.095683a22.897724 22.897724 0 0 0-16.574051-8.233002c-0.344049-0.02559-0.702314-0.02559-1.04352-0.02559z"  horiz-adv-x="1031" />

    
    <glyph glyph-name="publish" unicode="&#58909;" d="M919.6 435.1c-22.9 38.5-54.5 71.1-92.1 95.3C803.5 666.9 684.3 768 544 768c-76.9 0-149.3-30-203.6-84.4C291.7 635 262.6 572 257 504.2c-50-12.7-95.4-40.4-129.8-79.7C86.4 377.79999999999995 64 318 64 256c0-68.4 26.6-132.7 75-181 48.4-48.4 112.6-75 181-75h160V320c0 17.7-14.3 32-32 32h-50.7L512 466.7 626.7 352H576c-17.7 0-32-14.3-32-32v-320h128c76.9 0 149.3 30 203.6 84.4C930 138.70000000000005 960 211.10000000000002 960 288c0 51.9-14 102.7-40.4 147.1zM672 64h-64V288h96c12.9 0 24.6 7.8 29.6 19.8s2.2 25.7-6.9 34.9l-192 192c-12.5 12.5-32.8 12.5-45.3 0l-192-192c-9.2-9.2-11.9-22.9-6.9-34.9s16.6-19.8 29.6-19.8h96v-224h-96c-105.9 0-192 86.1-192 192 0 94.9 70.7 176.6 164.6 190l27.7 4-0.2 28v1.2 0.8c0 123.5 100.5 224 224 224 113.3 0 208.9-84.7 222.4-197l1.9-16 14.1-8C852.5 443.2 896 368.5 896 288c0-123.5-100.5-224-224-224z"  horiz-adv-x="1024" />

    
    <glyph glyph-name="weibiaoti-" unicode="&#58884;" d="M806.787879-128h-572.867133c-109.799534 0-233.920746 88.317016-233.920746 210.051282h35.804196c0-97.864802 105.025641-174.247086 198.11655-174.247086h572.867133c90.703963 0 198.11655 76.382284 198.11655 174.247086h35.804196c-2.386946-119.347319-124.121212-210.051282-233.920746-210.051282zM883.170163 602.405594l-23.869464 26.256411c50.125874 47.738928 50.125874 124.121212 4.773893 174.247086s-124.121212 50.125874-174.247086 4.773893l-23.869464 26.25641c64.447552 59.67366 164.699301 57.286713 224.37296-4.773893 57.286713-66.834499 54.899767-167.086247-7.160839-226.759907zM133.668998 602.405594c-31.030303 28.643357-47.738928 69.221445-50.125874 112.186481 0 42.965035 14.321678 83.543124 42.965035 114.573426C155.151515 860.195804 195.729604 876.904429 238.694639 879.291375c42.965035 0 83.543124-14.321678 114.573426-42.965035l-23.869464-26.25641c-23.869464 21.482517-54.899767 33.417249-88.317016 33.417249-33.417249-4.773893-64.447552-19.095571-85.93007-40.578088-23.869464-23.869464-35.804196-57.286713-33.417249-88.317016 0-33.417249 14.321678-64.447552 38.191142-85.93007l-26.25641-26.256411zM1038.321678 82.051282H1002.517483v119.347319c-2.386946 224.37296-186.181818 644.475524-484.550117 658.797203C221.986014 843.487179 38.191142 423.384615 35.804196 201.398601v-119.347319H0v119.347319C2.386946 437.706294 200.503497 879.291375 517.967366 896c319.850816-16.708625 517.967366-458.293706 520.354312-694.601399v-119.347319zM365.202797 547.505828m-35.804196 0a35.804196 35.804196 0 1 1 71.608392 0 35.804196 35.804196 0 1 1-71.608392 0ZM675.505828 547.505828m-35.804196 0a35.804196 35.804196 0 1 1 71.608391 0 35.804196 35.804196 0 1 1-71.608391 0Z"  horiz-adv-x="1040" />

    
    <glyph glyph-name="icon-test" unicode="&#58902;" d="M459.641 90.12300000000005c-47.747 0-94.074 9.354-137.694 27.805-42.125 17.816-79.953 43.32-112.434 75.802s-57.985 70.31-75.802 112.434c-18.449 43.62-27.804 89.947-27.804 137.694s9.355 94.074 27.804 137.694c17.817 42.124 43.321 79.952 75.802 112.434s70.31 57.985 112.434 75.802c43.62 18.45 89.947 27.805 137.694 27.805 49.551 0 97.487-10.049 142.477-29.868 43.452-19.143 82.078-46.428 114.804-81.1 5.687-6.024 5.413-15.518-0.612-21.204s-15.518-5.414-21.205 0.612c-61.818 65.491-145.441 101.56-235.464 101.56-178.508 0-323.734-145.227-323.734-323.734s145.227-323.734 323.734-323.734 323.735 145.227 323.735 323.734c0 8.284 6.716 15 15 15s15-6.716 15-15c0-47.747-9.355-94.074-27.804-137.694-17.817-42.124-43.321-79.952-75.802-112.434s-70.31-57.985-112.434-75.802c-43.621-18.452-89.947-27.806-137.695-27.806zM790.282 502.732c-6.875 0-13.073 4.756-14.628 11.746a322.416 322.416 0 0 1-9.173 32.883c-2.647 7.851 1.571 16.36 9.421 19.007 7.85 2.642 16.359-1.572 19.006-9.421a352.752 352.752 0 0 0 10.029-35.955c1.799-8.086-3.298-16.101-11.385-17.899a15.041 15.041 0 0 0-3.27-0.361zM758.834 587.845c-5.366 0-10.555 2.886-13.253 7.952a324.742 324.742 0 0 1-18.236 30.159c-4.666 6.845-2.899 16.177 3.946 20.843 6.844 4.669 16.176 2.899 20.843-3.946a355.13 355.13 0 0 0 19.927-32.954c3.894-7.312 1.123-16.396-6.189-20.29a14.939 14.939 0 0 0-7.038-1.764zM842.129-29.591000000000008c-20.3 0-39.386 7.905-53.74 22.26L681.461 99.596c-29.633 29.633-29.633 77.848 0 107.48 14.354 14.354 33.439 22.26 53.74 22.26s39.386-7.905 53.74-22.26l106.927-106.928c29.633-29.633 29.633-77.848 0-107.48-14.354-14.354-33.439-22.259-53.739-22.259zM735.201 199.336c-12.287 0.001-23.838-4.784-32.526-13.473-17.936-17.936-17.936-47.119 0-65.055L809.602 13.879999999999995c8.688-8.688 20.24-13.473 32.527-13.473s23.839 4.785 32.527 13.473c17.936 17.936 17.936 47.119 0 65.055L767.728 185.86400000000003c-8.688 8.688-20.24 13.473-32.527 13.472zM233.589 460.735c-8.284 0-15 6.716-15 15 0 114.27 92.966 207.235 207.236 207.235 8.284 0 15-6.716 15-15s-6.716-15-15-15c-97.728 0-177.236-79.508-177.236-177.235 0-8.284-6.715-15-15-15z"  horiz-adv-x="1024" />

    
    <glyph glyph-name="dianzan" unicode="&#58937;" d="M859.2 489.6H616c-1.6 0-3.2 1.6-3.2 4.8l43.2 152c8 28.8 4.8 59.2-9.6 84.8S608 777.6 579.2 785.6c-28.8 8-59.2 4.8-84.8-9.6s-44.8-38.4-52.8-67.2l-22.4-78.4c-24-81.6-99.2-139.2-184-139.2h-68.8c-52.8 0-96-43.2-96-96v-320c0-52.8 43.2-96 96-96h612.8c44.8 0 83.2 30.4 92.8 72l80 320c1.6 8 3.2 16 3.2 24 0 52.8-43.2 94.4-96 94.4z m-694.4-448c-17.6 0-32 14.4-32 32v320c0 17.6 14.4 32 32 32h80v-384h-80z m724.8 345.6l-80-320c-3.2-14.4-16-24-30.4-24H308.8V438.4c80 25.6 145.6 89.6 169.6 174.4l22.4 78.4c3.2 12.8 11.2 22.4 22.4 28.8 11.2 6.4 24 8 36.8 4.8 12.8-3.2 22.4-11.2 28.8-22.4 6.4-11.2 8-24 4.8-36.8L550.4 512c-1.6-6.4-3.2-12.8-3.2-19.2 0-36.8 30.4-67.2 67.2-67.2h243.2c17.6 0 32-14.4 32-32 1.6-1.6 0-4.8 0-6.4z"  horiz-adv-x="1024" />

    
    <glyph glyph-name="pengyouquan" unicode="&#58885;" d="M711.840512 511.01338397L711.840512 834.83362759c0 0-158.49375744 84.9012133-343.48887154 19.42280647L711.840512 511.01338397zM741.879552 320.55381447L741.879552 821.45196601c0 0 187.37509603-84.9012133 240.18497309-291.08103964L741.879552 320.55381447zM641.08434659 174.98077638999996l345.86885348 325.11938788c0 0 61.23623424-99.45217365-30.03926756-325.11938788L641.08434659 174.98077638999996zM464.45123584 133.73175807999996l467.18362283 0c0 0-56.41191424-152.8482907-258.25997142-215.8584832L464.45123584 133.73175807999996zM311.93972736 236.88670891000004l0-304.39743716c0 0 121.31454179-77.69077077 329.14461923-25.52876032L311.93972736 236.88670891000004zM41.65113173 221.10164195000004l236.64706219 212.2857802 0-482.70990677C278.29842147-49.322484619999955 135.37097159 0.30627385000002505 41.65113173 221.10164195000004zM35.66911147 255.07518009c0 0-54.09628615 174.60969245 21.61268167 326.223649l325.47822705 0L35.66911147 255.07518009zM77.73677454 615.33740373c0 0 68.44053731 155.18688597 254.59335168 228.00581064l222.17410219-228.00581064L77.73677454 615.33740373z"  horiz-adv-x="1024" />

    
    <glyph glyph-name="mianshiti" unicode="&#58880;" d="M873.063584-42.17340999999999v-2.959538H153.895954l-2.959538 2.959538V555.653179h722.127168v-597.826589zM150.936416 750.982659v2.959538h159.815029v-20.716763c0-20.716763 17.757225-41.433526 41.433526-41.433526 20.716763 0 41.433526 17.757225 41.433526 41.433526v23.6763h239.722543v-20.716763c0-20.716763 17.757225-41.433526 41.433526-41.433526 20.716763 0 41.433526 17.757225 41.433526 41.433526v20.716763h159.815029v-118.381503H150.936416V750.982659zM873.063584 836.809249h-159.815029v17.757225c0 20.716763-17.757225 41.433526-41.433526 41.433526-20.716763 0-41.433526-17.757225-41.433526-41.433526V836.809249h-239.722543v17.757225C390.65896 878.242775 372.901734 896 352.184971 896c-23.676301 0-41.433526-17.757225-41.433526-41.433526V836.809249H150.936416C106.543353 836.809249 71.028902 798.3352600000001 71.028902 750.982659v-796.115607c0-47.352601 35.514451-82.867052 79.907514-82.867052h722.127168c44.393064 0 79.907514 38.473988 79.907514 82.867052V750.982659c0 47.352601-35.514451 85.82659-79.907514 85.82659zM352.184971 312.971098h319.630058c20.716763 0 41.433526 17.757225 41.433526 41.433526 0 20.716763-17.757225 41.433526-41.433526 41.433526H352.184971c-20.716763 0-41.433526-17.757225-41.433526-41.433526 0-23.676301 17.757225-41.433526 41.433526-41.433526z m0-198.289017h319.630058c20.716763 0 41.433526 17.757225 41.433526 41.433526 0 20.716763-17.757225 41.433526-41.433526 41.433526H352.184971c-20.716763 0-41.433526-17.757225-41.433526-41.433526 0-23.676301 17.757225-41.433526 41.433526-41.433526z"  horiz-adv-x="1024" />

    
    <glyph glyph-name="xuexi-" unicode="&#58889;" d="M996.5 608.9L567.6 827.2c-34.8 17.6-76.4 17.6-111.2 0L27.5 609.6C10.6 601 0 583.9 0 564.8c0-19 10.5-36.2 27.5-44.8l219.8-111.8v-305c0-33.9 18.8-64.4 49-79.7l164.9-83.6c15.9-8.1 33.4-12.1 50.9-12.1s35 4 50.9 12.1l164.9 83.6c30.2 15.3 49 45.9 49 79.7V407.8L901.4 471v-111.9c0-15.2 12.3-27.5 27.5-27.5s27.5 12.3 27.5 27.5V494.4c0 1.5-0.1 2.9-0.3 4.3l40.4 20.5c17 8.6 27.5 25.8 27.5 44.8 0 19.1-10.5 36.3-27.5 44.9zM721.8 103.10000000000002c0-13.1-7.2-24.8-18.9-30.8L538-11.299999999999955c-16.3-8.3-35.8-8.3-52.1 0L321 72.29999999999995c-11.6 5.9-18.9 17.7-18.9 30.8V380.20000000000005l154.2-78.5c17.4-8.8 36.5-13.2 55.6-13.2s38.2 4.4 55.6 13.2l154.2 78.2v-276.8z m-179 247.6c-19.3-9.8-42.3-9.8-61.5 0L60.5 564.8l420.7 213.4c19.3 9.8 42.3 9.8 61.5 0l420.7-214.1-420.6-213.4z"  horiz-adv-x="1024" />

    
    <glyph glyph-name="saoyisao" unicode="&#58975;" d="M149.773474 611.112421v138.509474c0 12.288 16.060632 26.138947 39.882105 26.138947h163.301053a59.877053 59.877053 0 0 1 0 119.754105h-163.301053C103.316211 895.514947 30.019368 832.404211 30.019368 749.675789v-138.563368a59.877053 59.877053 0 1 1 119.754106 0zM753.502316 775.760842h134.736842c23.875368 0 39.936-13.850947 39.936-26.085053v-138.563368a59.877053 59.877053 0 0 1 119.754105 0v138.509474c0 82.728421-73.296842 145.893053-159.63621 145.893052H753.502316a59.877053 59.877053 0 0 1 0-119.754105z m174.672842-613.807158v-140.395789c0-10.940632-15.791158-24.252632-39.882105-24.252632H740.567579a59.877053 59.877053 0 0 1 0-119.808h147.779368c86.123789 0 159.636211 61.978947 159.636211 144.060632V161.953684a59.877053 59.877053 0 0 1-119.754105 0zM359.855158-2.694737a59.877053 59.877053 0 0 0 0-119.808H189.655579c-86.123789 0-159.636211 61.978947-159.636211 144.060632V161.953684a59.877053 59.877053 0 1 0 119.754106 0v-140.395789c0-10.940632 15.791158-24.252632 39.882105-24.252632h170.199579zM59.877053 446.410105H1018.125474a59.877053 59.877053 0 1 0 0-119.754105H59.877053a59.877053 59.877053 0 0 0 0 119.754105z"  horiz-adv-x="1078" />

    
    <glyph glyph-name="shouji" unicode="&#59061;" d="M702.7 835.055H321.283c-57.463 0-104.022-46.591-104.022-104.018v-693.455c0-57.427 46.56-104.019 104.022-104.019H702.7c57.463 0 104.023 46.592 104.023 104.02V731.036c0 57.426-46.56 104.018-104.024 104.018zM477.316 800.382h69.35c9.582 0 17.336-7.754 17.336-17.336 0-9.582-7.754-17.336-17.337-17.336h-69.349c-9.581 0-17.336 7.754-17.336 17.336 0 9.582 7.755 17.336 17.336 17.336z m34.675-824.46c-24.482 0-44.324 19.842-44.324 44.323 0 24.48 19.843 44.323 44.324 44.323 24.482 0 44.325-19.843 44.325-44.323 0-24.482-19.843-44.322-44.325-44.322z m225.381 148.341c0-9.582-7.753-17.335-17.336-17.335h-416.09c-9.583 0-17.338 7.753-17.338 17.335V713.7c0 9.582 7.755 17.336 17.338 17.336h416.09c9.583 0 17.336-7.755 17.336-17.336v-589.437z"  horiz-adv-x="1024" />

    
    <glyph glyph-name="jingyan" unicode="&#58901;" d="M509.9 832.1c-244.7 0-443-198.6-443-443.5S265.3-55 509.9-55s443 198.6 443 443.5-198.3 443.6-443 443.6z m124.9-635.9L510 254.8l-124.8-58.6 17.1 136.9L308 433.9l135.4 26L510 580.8 576.5 460l135.4-26-94.2-100.7 17.1-137.1z"  horiz-adv-x="1024" />

    
    <glyph glyph-name="tubiao-" unicode="&#58984;" d="M777.102222 457.955556c3.413333-9.102222 4.551111-19.342222 4.551111-29.582223v-3.413333c1.137778-64.853333-50.062222-118.328889-112.64-118.328889-61.44 0-112.64 53.475556-112.64 118.328889S607.573333 543.288889 669.013333 543.288889c51.2 0 94.435556-36.408889 108.088889-85.333333z m-51.2 47.786666c-15.928889 12.515556-36.408889 19.342222-56.888889 19.342222-52.337778 0-94.435556-45.511111-94.435555-101.262222s42.097778-101.262222 94.435555-101.262222c31.857778 0 60.302222 17.066667 77.368889 42.097778-10.24-6.826667-22.755556-11.377778-35.271111-11.377778-38.684444 0-70.542222 34.133333-70.542222 76.231111s31.857778 76.231111 70.542222 76.231111c4.551111 2.275556 10.24 1.137778 14.791111 0z m-320.853333-9.102222c-17.066667 18.204444-40.96 28.444444-65.991111 28.444444-52.337778 0-94.435556-45.511111-94.435556-101.262222s42.097778-101.262222 94.435556-101.262222c40.96 0 76.231111 28.444444 88.746666 67.128889-12.515556-21.617778-34.133333-35.271111-60.302222-36.408889-38.684444 0-70.542222 34.133333-70.542222 76.231111s31.857778 76.231111 70.542222 76.231111c13.653333 2.275556 27.306667-2.275556 37.546667-9.102222z m114.915555-411.875556h-2.275555c-5.688889-1.137778-9.102222-1.137778-13.653333-1.137777h-2.275556c-5.688889 0-9.102222 0-12.515556 2.275555-3.413333 1.137778-6.826667 3.413333-7.964444 6.826667-2.275556 4.551111-4.551111 11.377778 2.275556 20.48 6.826667 11.377778 21.617778 20.48 37.546666 21.617778 13.653333 2.275556 27.306667-2.275556 36.408889-12.515556 6.826667-7.964444 10.24-14.791111 6.826667-21.617778-5.688889-12.515556-22.755556-14.791111-40.96-15.928889h-3.413334z m1.137778-143.36C268.515556-58.595556 61.44 139.377778 61.44 384S267.377778 826.595556 521.102222 826.595556c253.724444 0 459.662222-197.973333 459.662222-442.595556 1.137778-244.622222-205.937778-442.595556-459.662222-442.595556z m0 860.16c-238.933333 0-434.631111-186.595556-434.631111-416.426666 0-229.831111 194.56-416.426667 434.631111-416.426667S955.733333 155.306667 955.733333 385.137778c1.137778 229.831111-194.56 416.426667-434.631111 416.426666zM227.555556 546.702222c-1.137778 0-2.275556 0-3.413334 1.137778-6.826667 2.275556-10.24 9.102222-9.102222 15.928889 19.342222 63.715556 88.746667 100.124444 154.737778 81.92 6.826667-2.275556 10.24-9.102222 9.102222-15.928889-2.275556-6.826667-9.102222-10.24-15.928889-9.102222-52.337778 14.791111-108.088889-13.653333-122.88-64.853334-2.275556-5.688889-6.826667-9.102222-12.515555-9.102222zM780.515556 531.911111c-4.551111 0-9.102222 2.275556-11.377778 6.826667-29.582222 54.613333-100.124444 77.368889-158.151111 50.062222-5.688889-3.413333-13.653333 0-17.066667 5.688889-3.413333 5.688889 0 13.653333 5.688889 17.066667 70.542222 34.133333 157.013333 5.688889 192.284444-61.44 3.413333-5.688889 1.137778-13.653333-5.688889-17.066667-1.137778-1.137778-3.413333-1.137778-5.688888-1.137778zM339.057778 307.768889c-61.44 0-112.64 53.475556-112.64 118.328889S276.48 543.288889 339.057778 543.288889c61.44 0 112.64-53.475556 112.64-118.328889s-51.2-117.191111-112.64-117.191111zM921.6 509.155556"  horiz-adv-x="1024" />

    
    <glyph glyph-name="zu" unicode="&#58946;" d="M512 384m-512 0a512 512 0 1 1 1024 0 512 512 0 1 1-1024 0ZM494.931499-37.54575a472.465126 472.465126 0 0 1 238.931499 64.8515c-18.77425 51.172488-37.548501 92.16-69.97425 112.64-76.797249 47.788501-122.874498 52.90575-168.957249 52.905749s-92.16-3.411499-167.273509-52.905749c-34.114992-22.18575-52.894745-63.14575-69.95224-112.64a461.570339 461.570339 0 0 1 237.225749-64.8515zM426.668501 303.78575v-136.5315c0-25.597249 30.72-47.788501 68.268501-47.7885s68.268501 20.48 68.2685 47.7885v136.5315zM709.971499 453.968748a47.788501 42.66575 90 1 1 85.331499 0 47.788501 42.66575 90 1 1-85.331499 0ZM196.26575 453.968748a47.788501 42.66575 90 1 1 85.331499 0 47.788501 42.66575 90 1 1-85.331499 0ZM494.931499 453.97425m-256 0a256 256 0 1 1 512 0 256 256 0 1 1-512 0ZM494.931499 496.64m-256 0a256 256 0 1 1 512 0 256 256 0 1 1-512 0ZM827.73425 744.10575s-15.362751-18.77425-73.385749-18.774251c-54.611499 0-104.10575 69.97425-235.503493 78.508501-8.53425 0-15.362751 1.70575-23.891499 1.70575A275.329995 275.329995 0 0 1 218.451499 529.06575c0-37.548501 6.828501-75.091499 20.48-104.10575h10.24c0 119.468501 23.891499 233.81425 167.273509 220.157249 145.06575-13.651499 155.30575-17.057496 283.308501-6.828501a586.1836 586.1836 0 0 0 40.96-213.33425h10.24a257.579194 257.579194 0 0 1 20.48 104.105749 271.736916 271.736916 0 0 1-23.891499 112.64 1.650725 1.650725 0 0 1 1.705749 1.70575c76.775239 30.725502 78.486491 100.699753 78.486491 100.699753zM402.771499 489.811499m-18.77425 0a18.77425 18.77425 0 1 1 37.548501 0 18.77425 18.77425 0 1 1-37.548501 0ZM407.89425 494.928748m-6.8285 0a6.828501 6.828501 0 1 1 13.657001 0 6.828501 6.828501 0 1 1-13.657001 0ZM587.091499 489.811499m-18.77425 0a18.77425 18.77425 0 1 1 37.548501 0 18.77425 18.77425 0 1 1-37.548501 0ZM592.21425 494.928748m-6.8285 0a6.828501 6.828501 0 1 1 13.657001 0 6.828501 6.828501 0 1 1-13.657001 0ZM491.52 244.051499a64.620398 64.620398 0 0 1 71.68 49.494251c0 1.70575-1.70575 5.117249-3.411499 5.117248l-117.751747 17.057496c-1.70575 0-5.117249-1.70575-5.117248-3.411499a63.613455 63.613455 0 0 1 54.600494-68.257496zM486.397249 351.57425h-25.597249c-1.70575 0-3.411499 0-3.411499 1.70575s-1.70575 1.70575 0 3.411499l22.185749 76.802751c0 1.70575 3.411499 3.411499 5.117249 3.4115s3.411499-3.411499 3.411499-5.122752l-11.945749-68.262998h11.945749a5.447394 5.447394 0 0 0 5.117249-5.117249v-5.117249c-1.68374-0.016507-3.405997-1.711252-6.822998-1.711252zM501.732488 88.74575a99.412187 99.412187 0 0 0-18.77425-30.72 28.85468 28.85468 0 0 1-17.057496-11.94575c3.411499 10.24 10.24 15.362751 8.53425 25.597249a29.674541 29.674541 0 0 1-6.817496 15.362751v-1.70575c1.70575-15.362751-6.828501-25.597249-10.24-35.837248-6.828501-23.891499 5.117249-40.96 22.18575-44.3715-11.94575 6.828501-22.18575 29.01425-1.70575 40.96-13.651499-22.18575 5.117249-47.788501 32.42575-37.5485-23.885997-1.711252-30.708995 13.62949-25.608254 29.03626 3.411499 17.057496 29.01425 32.42575 17.057496 51.172488M500.05425 47.78575a26.175003 26.175003 0 0 0 29.014251 3.411499 19.291478 19.291478 0 0 1-18.774251-3.411499c-6.828501-6.828501-10.24-15.362751-5.117248-22.18575 5.117249-5.122751 15.362751-5.122751 23.891499 0a9.145019 9.145019 0 0 1 5.117249 6.828501 69.1764 69.1764 0 0 0-8.534251-15.362751c-10.24-8.53425-23.891499-8.53425-30.72 0s-3.411499 22.18575 5.117249 30.72M530.768748 47.78575c1.70575-3.411499 3.411499-3.411499 6.828501-3.4115-3.411499-1.70575-3.411499-3.411499-3.411499-6.8285-1.70575 3.411499-3.411499 3.411499-6.828501 3.411499 3.411499 1.70575 3.411499 3.411499 3.411499 6.828501M527.357249 68.26575a1.650725 1.650725 0 0 1 1.705749-1.70575 5.287824 5.287824 0 0 0-1.705749-3.411499c-1.70575 1.70575-1.70575 1.70575-3.411499 1.705749 1.70575 1.70575 3.411499 1.70575 3.411499 3.4115M537.597249 63.148501c1.70575-1.70575 1.70575-1.70575 5.117249-1.70575-1.70575-1.70575-1.70575-1.70575-1.70575-5.122751-1.70575 1.70575-1.70575 1.70575-5.117249 1.70575a6.267254 6.267254 0 0 1 1.70575 5.117248"  horiz-adv-x="1024" />

    
    <glyph glyph-name="share" unicode="&#61614;" d="M1007.382 516.328L655.374 820.298C624.562 846.908 576 825.306 576 783.97v-160.106C254.742 620.186 0 555.8 0 251.348c0-122.882 79.162-244.618 166.666-308.264 27.306-19.862 66.222 5.066 56.154 37.262C132.132 270.372 265.834 347.368 576 351.83V176c0-41.4 48.6-62.906 79.374-36.328l352.008 304c22.142 19.124 22.172 53.506 0 72.656z"  horiz-adv-x="1024" />

    
    <glyph glyph-name="xiaoxi3" unicode="&#58903;" d="M869.791789 279.117606v164.279002c0 135.515932-86.809474 268.232357-208.005807 326.427407-20.290228 57.253623-73.134009 95.009798-140.272615 95.009798-65.453947 0-118.495923-38.202115-139.256865-94.687731C259.301188 711.82716 172.194421 578.466601 173.804756 442.529504v-163.015508C135.924709 244.01229 89.770014 186.04021 101.98379 121.800208c5.103525-26.805894 24.972588-74.992089 100.856555-96.694457l10.008855-2.87383h107.644739c37.409334-82.597827 127.687223-126.968766 200.722135-126.968766s157.366947 30.967992 203.422544 126.968766h106.306922l10.20705 2.997702c74.471826 21.751917 94.142695 69.591271 99.221445 96.14942 12.312873 64.041807-33.197687 122.162534-70.582246 157.738563zM521.81066-37.647787c-38.648054 0-84.901846 23.733869-115.696417 59.879708h236.000871c-30.645925-39.044444-79.748772-59.879709-120.304454-59.879708z m298.53144 134.202888H223.303994c-123.103961 35.179639 24.873491 148.64636 24.873491 148.64636v198.195147c-1.436915 119.511673 85.843273 237.338688 199.012702 272.518327 0 38.7967 26.136985 74.595698 74.347954 74.595698 48.186195 0 74.917765-33.172913 74.917766-74.595698 112.921685-35.229187 199.012702-153.279172 199.012702-272.518327v-198.195147s145.351366-113.441947 24.873491-148.64636z"  horiz-adv-x="1024" />

    
    <glyph glyph-name="pc" unicode="&#58983;" d="M107.789474 842.105263a53.894737 53.894737 0 0 1-53.894737-53.894737v-646.736842a53.894737 53.894737 0 0 1 53.894737-53.894737h970.105263a53.894737 53.894737 0 0 1 53.894737 53.894737V788.210526a53.894737 53.894737 0 0 1-53.894737 53.894737H107.789474z m377.263158-808.421052H107.789474a107.789474 107.789474 0 0 0-107.789474 107.789473V788.210526a107.789474 107.789474 0 0 0 107.789474 107.789474h970.105263a107.789474 107.789474 0 0 0 107.789474-107.789474v-646.736842a107.789474 107.789474 0 0 0-107.789474-107.789473h-377.263158v-107.789474h215.578947v-53.894737H269.473684v53.894737h215.578948v107.789474z m53.894736 0v-107.789474h107.789474v107.789474h-107.789474z m-485.052631 323.368421v-53.894737h1077.894737v53.894737H53.894737z m538.947368-215.578948a53.894737 53.894737 0 1 1 0 107.789474 53.894737 53.894737 0 0 1 0-107.789474z"  horiz-adv-x="1185" />

    
    <glyph glyph-name="weibiaoti--" unicode="&#58915;" d="M8.42666667 584.2133333300001c-10.34666667-21.76-1.17333333-47.89333333 20.58666666-58.24l439.46666667-209.6c21.76-10.34666667 47.89333333-1.17333333 58.24 20.58666667 10.34666667 21.76 1.17333333 47.89333333-20.58666667 58.24L66.66666667 604.8c-21.76 10.45333333-47.89333333 1.17333333-58.24-20.58666667zM11.09333333 546.98666667c10.88-21.54666667 37.12-30.18666667 58.66666667-19.41333334l449.49333333 226.34666667c21.54666667 10.88 30.18666667 37.12 19.41333334 58.66666667C527.78666667 834.13333333 501.54666667 842.77333333 480 832L30.50666667 605.65333333c-21.54666667-10.88-30.29333333-37.12-19.41333334-58.66666666zM449.49333333 335.78666667000005c10.88-21.54666667 37.12-30.18666667 58.66666667-19.41333334l449.49333333 226.34666667c21.54666667 10.88 30.18666667 37.12 19.41333334 58.66666667-10.88 21.54666667-37.12 30.18666667-58.66666667 19.41333333L468.90666667 394.45333333c-21.54666667-10.88-30.29333333-37.12-19.41333334-58.66666666zM460.16 811.09333333c-10.34666667-21.76-1.17333333-47.89333333 20.58666667-58.24l438.61333333-209.28c21.76-10.34666667 47.89333333-1.17333333 58.24 20.58666667 10.34666667 21.76 1.17333333 47.89333333-20.58666667 58.24L518.4 831.78666667c-21.76 10.34666667-47.89333333 1.17333333-58.24-20.69333334zM799.25333333 515.52c-24.10666667 0-43.73333333-19.52-43.73333333-43.73333333v-336c0-24.10666667 19.52-43.73333333 43.73333333-43.73333334 24.10666667 0 43.73333333 19.52 43.73333334 43.73333334v336c0 24.10666667-19.62666667 43.73333333-43.73333334 43.73333333zM920.85333333 603.52c-24.10666667 0-43.73333333-19.52-43.73333333-43.73333333v-336c0-24.10666667 19.52-43.73333333 43.73333333-43.73333334 24.10666667 0 43.73333333 19.52 43.73333334 43.73333334v336c0 24.10666667-19.62666667 43.73333333-43.73333334 43.73333333zM217.81333333 516.8c-24.10666667 0-43.73333333-19.52-43.73333333-43.73333333v-336c0-24.10666667 19.52-43.73333333 43.73333333-43.73333334 24.10666667 0 43.73333333 19.52 43.73333334 43.73333334v336c0 24.21333333-19.52 43.73333333-43.73333334 43.73333333zM755.62666667 138.66666667000004v-0.74666667c0-71.78666667-110.61333333-129.92-247.04-129.92-133.76 0-242.66666667 55.89333333-246.93333334 125.76l-87.04 16c-0.32-3.94666667-0.53333333-7.89333333-0.53333333-11.84 0-120 149.76-217.28 334.4-217.28s334.4 97.28 334.4 217.28c0 4.26666667-0.21333333 8.42666667-0.53333333 12.58666667L755.62666667 138.66666667000004z"  horiz-adv-x="1024" />

    
    <glyph glyph-name="shouye1" unicode="&#58904;" d="M1009.158986 829.683524L889.662378-47.69684199999995c-0.019961 0-0.039922-0.009981-0.059883-0.009981a28.937481 28.937481 0 0 0-40.640624-25.41037l-0.029941-0.029942-325.594074 137.960546-64.474074-132.750721a28.904546 28.904546 0 0 0-54.475603 0.179649L324.865497 108.53801199999998l39.810246 45.70074L796.913528 653.780086 225.66924 190.94705699999997 21.37625 277.517973c0.03094 0.089825 0.058885 0.179649 0.088826 0.269473a29.867665 29.867665 0 0 0 0.424172 54.952671L966.681949 862.505419c0.059883-0.077848 0.109786-0.152702 0.169669-0.23055a28.904546 28.904546 0 0 0 42.307368-32.591345z"  horiz-adv-x="1024" />

    
    <glyph glyph-name="icon" unicode="&#59000;" d="M316.90853522 622.8496497c-4.75454889 3.31067423-9.49399331 6.64652257-12.10818402 8.47528125 8.46129566 8.72646288 20.68024573 16.68483594 19.5060137 20.98681039-3.4309505 12.54229745-16.36987991 6.2498906-25.72289823 6.73658991-0.62319889 0.03020893-1.25031378-0.11468202-1.87463153-0.16111426-44.77186213-3.58758935-82.24323444-25.11032842-117.96081092-49.71213993-13.19682411-9.08785111-24.53076462-21.40246277-35.07311943-33.66672625-9.80950873-11.41953246-7.17014391-18.82407523 7.17238159-20.23997865 12.06175179-1.20108442 11.88777076-6.97210763 11.86595321-16.21995415-0.07943828-38.96671402 17.15643077-68.58880107 50.9574189-87.85761878 31.71377529-18.0766841 64.08879035-19.4674134 96.43863128-1.081927 67.93651207 38.61987082 71.43850951 127.77423562 6.79700776 172.74525285zM187.81405778 562.19348812c-1.57478 9.62154208 10.90150537 22.30257682 20.79380891 22.23041105 10.07075998-0.06992809 19.32643843-9.89286297 19.65929603-20.85926158 0.39103773-12.75320048-6.50890414-20.03802641-18.8598784-20.08949346-12.70956537-0.05482361-19.67160337 6.9715482-21.59434539 18.72002227zM223.29387884 469.85823559c-14.1461675-0.06992809-29.08224241 15.01942915-28.83329849 29.15384875 0.27076147 16.09632133 12.69222321 27.02020367 30.08417168 26.46917053 16.42973834-0.51746767 25.92764761-10.93842739 25.67366891-28.17205874-0.22712635-16.31393746-11.07604582-27.37152226-26.92510153-27.44816342zM298.79548855 491.09063332c-24.55761699-0.11803857-45.30107771 20.4100437-45.59813212 45.13492863-0.31887197 25.93771725 19.96418237 48.84447254 44.78640716 48.19274297 28.01765757-0.73955919 45.8554674-18.77037049 47.6954146-48.21791707 1.29730543-20.74234186-23.24632596-46.38132643-46.88089252-45.10919512zM760.02421161 398.44490019c-2.71712482-1.83882834-8.17375147-1.92274203-11.32275203-0.49285299-23.6194621 10.69731542-32.90870603 8.84729857-50.53617223-11.86819091h82.62588079c0.31327772 1.74596389 0.62767429 3.50255684 0.93871432 5.25691208-5.20320734 7.53656695-10.09033983 15.00152757-21.70790855 7.10469126zM503.80834693 332.71028294999996c-42.52129733-0.68641388-71.68521572-18.71666572-95.21964528-46.19168152-5.01244358-5.84151069-4.18225761-16.67364743-6.04737891-25.20487115 7.57348897 1.39408587 15.37074773 2.05476622 22.66955929 4.31484123 21.96132786 6.81267165 43.26924789 17.33544663 65.69881404 20.69758789 29.79550864 4.4586133 57.68953342-6.24933117 83.63843918-21.48078221 4.5106398-2.65558813 10.81087858-2.27070407 16.28652566-3.28214358-0.84808755 5.8185743 0.13202418 12.86228827-2.83124743 17.27390992-21.18037125 31.60021211-48.66881322 53.42615923-84.19506655 53.87313942zM1019.35830846 768.93105228c0 7.53600753 0 15.09047607-0.44530191 22.60186893-2.98061378 50.45953108-50.69448937 95.54411151-101.23513701 95.56872616-134.45600192 0.05873957-674.8119649-0.21593785-810.53058793-0.33677355-55.43449322-0.04755109-103.22333171-48.65035222-102.59957339-103.8235942 0.22712635-20.09676598 0.45649039-40.20639871 0.44977732-60.30148641-0.09006735-187.21588657 1.41198745-374.44631818-1.24471953-561.62863929-0.97395807-68.01930693 58.81453609-112.40628498 113.92176596-112.40628499 21.75434077 0 43.93048767 0.25230045 65.9276187 0.19356089 8.37906025-0.02349583 14.7486677-0.60194077 12.44216044-12.65697946-3.25193465-16.94664657-5.24236705-34.22894787-6.41156425-51.46873289-1.29283004-19.02546805 9.78992889-32.7185017 21.62902971-46.27503578 6.1430405-7.04427338 10.22907711-16.14163472 14.11148317-24.80767975 2.23154437-5.00125509 0.73396495-11.96161479 3.57024721-16.28708509 2.9196365-4.44910311 8.95470809-8.92953398 13.87093063-9.23106378 3.20941839-0.18181297 10.32082273 7.63390681 9.77370556 10.87633126-3.86842045 23.11598004 8.72030921 31.40777008 28.34100495 35.0608121 4.15876178 0.78263487 7.96284843 3.63122447 11.84021968 5.69661975 46.01546279 24.50894707 82.75566729 60.38763779 119.41475518 96.54268427 6.06919648 5.9970307 15.69073856 11.53980873 23.83651882 11.77085103 44.57438527 1.27380959 89.21366378 1.36835235 133.79644042 0.46656003 8.2906712-0.17006505 17.85515198-5.04992505 24.40041871-10.61396116 23.85945521-20.26571218 45.99308583-42.58619057 70.0869399-62.54981351 24.64097125-20.42011335 51.40216137-38.17624718 82.33330178-47.90855534 23.45163475-7.39167601 23.25136078-6.79085408 21.5993802-31.50510995-0.30544578-4.57888958 2.65558813-11.64498053 6.26051964-13.59345609 4.02897529-2.17672075 12.70341171-1.86176476 15.36123754 1.03437592 3.60493152 3.93107602 3.55905871 11.31044468 4.80937248 17.27335049 2.41391675 11.47883146 0.78599141 26.67224163 7.61880237 33.8709162 27.82465612 29.31664127 28.10157125 62.83735771 19.40140132 98.09452782-3.55682102 14.42364206 1.54848704 16.00905111 13.68408286 16.00905111 25.4661224 0 49.25956551-0.16670849 75.32035615-0.1667085 58.72446875 0 110.20718723 53.67957855 109.5576954 111.72154937-2.26287213 202.90438743-0.86934567 405.85464768-0.89451978 608.78812521zM306.39694873-23.036152219999963c-13.12521778-9.989084-29.18461709-17.08202731-44.94136773-22.46648822-25.51255462-8.72646288-45.6389701 5.99926842-48.01820255 33.00492705-0.32390679 3.72576721-0.04755109 7.51139286-0.04755107 11.26233418 0.19803626 33.76294727 18.4649247 59.01648832 40.19465081 81.98589915 27.18691218 28.75162253 61.84717633 46.88928388 97.8791494 61.26537487 32.38676295 12.93165691 66.23530217 22.24607493 99.5893101 32.68046081 5.10586748 1.59883524 11.10513589 1.23856587 16.57518871 0.64837301 10.80248723-1.16472182 14.09917583-7.70327545 9.47888884-17.20062531-5.46837454-11.23604122-10.44557439-23.12549025-18.04759401-32.85052587-44.06307127-56.37041042-95.85627038-105.10915173-152.66135364-148.33140796zM456.95598508 82.87968961000001c17.10216659 25.53101563 31.63489643 47.22493859 46.43055579 69.29367596 15.37802026-22.40439206 30.03270463-43.75203125 47.56171213-69.29367595h-93.99003022zM798.11990166-28.433479889999944c-8.79079673-19.39804477-25.51087636-25.8291889-46.12511-19.18378517-32.95793539 10.62626852-59.82150021 30.95072025-84.88931235 53.53692529-31.59293959 28.47358854-62.94141067 57.36562661-92.37609053 88.01817362-16.27645603 16.94664657-29.79718692 37.0076094-42.03124145 57.18996732-10.16977811 16.76595247-2.91124514 26.05799353 17.24593869 26.98384108 22.91067125-6.15478843 46.10832727-11.39435835 68.66767993-18.64114342 38.19862418-12.2855216 75.70579964-26.74384797 108.8684844-49.8575903 31.1140722-21.68385331 58.28867706-47.20256161 70.15742738-85.0135046 5.53103009-17.60788635 8.51779753-35.27898767 0.4816645-53.03064611zM987.92256715 159.80783182000005c-0.05370475-34.98976519-15.0546729-60.87937195-48.55860661-72.67259999-13.22255765-4.66280327-28.30743947-5.31173569-42.56828898-5.45774548-30.57814354-0.30152982-61.20271931 0.38432464-91.75736702 1.90036505-7.25405758 0.36026937-15.97604507 3.80968089-21.13170132 8.82212448-61.85277059 60.0475077-138.7814722 88.18600097-221.05211844 104.2823223-18.06549559 3.53388461-37.68227534 4.23036811-53.48210168-10.74430708-2.20189487-2.09224765-10.38571598-1.39464529-12.98144569 1.02206857-14.86838454 13.9044961-33.37974147 13.35290355-49.97786658 9.56615905-77.04002709-17.60900519-151.69298982-41.86341412-207.77641546-101.60156005-16.60315994-17.69347833-34.55621121-14.5752461-52.76491947-14.5752461-26.21910778 0-47.98519649 0.41341472-74.17857075 0.4134147-38.32001927 0-74.93211556 32.50144498-74.9902957 75.68901692-0.15496059 103.64625664-0.04755109 207.28971615-0.04755109 310.93653222-0.03468432 0 0.8424933 207.25447239-0.56445933 310.86100988-0.54599831 40.08724131 34.99703771 75.2319671 70.55629707 75.23196709 36.01295261 0 782.26454589-0.03692201 807.32676378-0.43802938 43.31847725-0.70375604 73.87256553-31.08330386 74.06612641-75.106656 0.47830795-109.31042977 0.04531339-521.40769553-0.11524145-618.13051446zM242.00550975 407.54841519c-4.37525907-1.19604959-7.79949647-5.87227905-11.65728787-8.94855442 4.21358539-1.69281856 8.51444099-5.00125509 12.63180536-4.77804472 13.59345607 0.72669243 27.11586526 2.73278873 40.67295875 4.24882916 0.03692201-0.33509527 0.0710469-0.67186883 0.11524146-1.01255837 1.86847785-0.10796893 3.76045153-0.48669933 5.58753197-0.26908319 4.23036811 0.49788781 8.42661134 1.28331982 12.64019673 1.95127265-3.78059082 2.72439737-7.55950336 5.45047297-11.33394051 8.17990516-16.03254693 11.53645219-32.53109449 5.05775697-48.65650589 0.629912zM840.51756618 594.90639559c-29.30209625 25.33857362-63.36489502 42.44129962-100.12467936 53.17329933-20.81674533 6.08094441-42.9565296 8.08424355-64.66555701 10.34431858-4.91678201 0.51019515-10.52333441-5.53662434-15.81884679-8.56422978 4.70587894-3.87681183 8.87135382-9.00169974 14.24350738-11.31044468 6.99392518-2.99124283 14.95006052-3.73975283 22.48662745-5.45774548 0-1.70680417 0-3.41137063 0-5.11985308-5.5769029-3.89303513-11.09506624-7.87278109-16.73070871-11.67015463-39.44949737-26.58161486-55.78972778-80.30091257-37.30354495-122.73158312 24.68292809-56.64900382 75.81376858-77.2749854 131.38028598-57.89987701 47.44255472 16.55001459 71.60018319 51.86592428 66.50550421 108.60947085-0.69928063 7.82299231-1.46737047 12.42929369 8.25822456 14.96684325 14.13274131 3.69108291 15.41494228 9.3457458 6.26723275 21.04443111-4.20183749 5.36879699-9.32001229 10.12949954-14.50196149 14.61328695zM662.14114623 557.7164138c0.51019515 9.5605648 11.76134083 20.37200285 21.38903659 20.55325638 11.68358083 0.21593785 21.39519025-9.55552999 21.3890366-21.51602595 0-12.75375991-8.38297625-20.87268777-21.53224928-20.85422677-10.75661442 0.01118849-21.80524842 11.3563175-21.24638333 21.81475864zM697.50292871 461.00478335c-14.04435225 0.21593785-26.9659395 14.95397648-26.94132478 30.73534183 0.02349583 15.32543436 13.83288976 28.82155058 28.98266483 28.33037585 13.69191481-0.43802939 26.67895473-14.38727947 26.76286839-28.73875575 0.10181526-17.16482213-12.63180537-30.56024196-28.80588669-30.32640251zM771.71954034 484.1207634c-23.24632596 0.71550394-43.00631839 23.31849172-42.42843286 48.5244817 0.58907399 25.44430484 24.14755882 47.59807474 49.48389474 46.54132184 22.92633513-0.95997245 45.07395136-25.62835549 44.64655103-49.72444727-0.47718909-26.82496453-22.60970087-46.23587606-51.70257234-45.339678z"  horiz-adv-x="1024" />

    
    <glyph glyph-name="slidebar_biaoqing" unicode="&#58906;" d="M537.6 0a396.8 396.8 0 1 0 396.8 396.8 397.312 397.312 0 0 0-396.8-396.8z m0 742.4a345.6 345.6 0 1 1 345.6-345.6A346.112 346.112 0 0 1 537.6 742.4zM537.6 189.952a143.36 143.36 0 0 0-139.264 112.128 25.6 25.6 0 0 0 51.2 10.752 91.136 91.136 0 0 1 177.664-2.56 25.6 25.6 0 1 0 51.2-12.288 142.336 142.336 0 0 0-140.8-108.032zM435.2 435.2h-51.2a25.6 25.6 0 0 0 0 51.2h51.2a25.6 25.6 0 0 0 0-51.2zM691.2 435.2h-51.2a25.6 25.6 0 0 0 0 51.2h51.2a25.6 25.6 0 1 0 0-51.2z"  horiz-adv-x="1024" />

    
    <glyph glyph-name="wode" unicode="&#59057;" d="M512 94.20799999999997c-205.824 0-373.76 167.936-373.76 373.76S306.176 841.728 512 841.728s373.76-167.936 373.76-373.76S717.824 94.20799999999997 512 94.20799999999997z m0 665.6c-160.768 0-291.84-131.072-291.84-291.84S351.232 176.12800000000004 512 176.12800000000004s291.84 131.072 291.84 291.84S672.768 759.808 512 759.808zM414.72 435.2c-22.528 0-40.96 18.432-40.96 40.96v40.96c0 22.528 18.432 40.96 40.96 40.96s40.96-18.432 40.96-40.96v-40.96c0-22.528-18.432-40.96-40.96-40.96zM609.28 435.2c-22.528 0-40.96 18.432-40.96 40.96v40.96c0 22.528 18.432 40.96 40.96 40.96s40.96-18.432 40.96-40.96v-40.96c0-22.528-18.432-40.96-40.96-40.96zM775.168-73.72799999999995c-22.528 0-40.96 18.432-40.96 40.96 0 51.2-12.288 88.064-37.888 110.592-34.816 31.744-83.968 27.648-83.968 27.648-22.528-2.048-41.984 14.336-44.032 36.864-2.048 22.528 14.336 41.984 36.864 44.032 3.072 0 84.992 7.168 146.432-48.128 43.008-38.912 64.512-97.28 64.512-172.032 0-21.504-17.408-39.936-40.96-39.936zM248.832-73.72799999999995c-22.528 0-40.96 18.432-40.96 40.96 0 75.776 21.504 133.12 64.512 172.032 61.44 56.32 143.36 48.128 146.432 48.128 22.528-2.048 38.912-22.528 36.864-45.056-2.048-22.528-22.528-38.912-44.032-36.864-1.024 0-50.176 3.072-83.968-27.648-24.576-22.528-37.888-60.416-37.888-110.592 0-22.528-18.432-40.96-40.96-40.96z"  horiz-adv-x="1024" />

    
    <glyph glyph-name="fankui" unicode="&#60190;" d="M512 96c-9.6 0-16 3.2-22.4 9.6L403.2 192H256c-19.2 0-32 12.8-32 32V576c0 19.2 12.8 32 32 32h128c19.2 0 32-12.8 32-32s-12.8-32-32-32H288v-288h128c9.6 0 16-3.2 22.4-9.6l73.6-73.6 73.6 73.6c6.4 6.4 12.8 9.6 22.4 9.6h128v288h-96c-19.2 0-32 12.8-32 32s12.8 32 32 32h128c19.2 0 32-12.8 32-32v-352c0-19.2-12.8-32-32-32h-147.2l-86.4-86.4c-6.4-6.4-12.8-9.6-22.4-9.6z m0 320c-19.2 0-32 12.8-32 32V640c0 19.2 12.8 32 32 32s32-12.8 32-32v-192c0-19.2-12.8-32-32-32z m0-128c-3.2 0-9.6 0-12.8 3.2-3.2 3.2-6.4 3.2-9.6 6.4-3.2 3.2-6.4 6.4-6.4 9.6-3.2 3.2-3.2 9.6-3.2 12.8 0 12.8 6.4 25.6 19.2 28.8 12.8 6.4 25.6 3.2 35.2-6.4 3.2-3.2 6.4-6.4 6.4-9.6 3.2-6.4 3.2-16 0-25.6-3.2-3.2-3.2-6.4-6.4-9.6-6.4-6.4-12.8-9.6-22.4-9.6z"  horiz-adv-x="1024" />

    
    <glyph glyph-name="yes" unicode="&#58912;" d="M512-128C229.239467-128 0 101.23946699999999 0 384 0 666.760533 229.239467 896 512 896c282.760533 0 512-229.239467 512-512 0-282.760533-229.239467-512-512-512z m245.521067 707.413333l-298.939734-275.387733-169.984 147.421867-38.263466-39.662934 208.145066-230.6048 331.229867 365.226667-32.187733 33.006933z"  horiz-adv-x="1024" />

    
    <glyph glyph-name="shouye-copy" unicode="&#59552;" d="M971.157333 739.4986670000001L981.333333 789.269333H535.936C189.141333 793.130667 43.818667 582.421333 42.666667 377.42933300000004c-0.64-115.946667 35.029333-214.933333 105.152-286.250666C218.474667 19.306666999999948 319.381333-21.33333300000004 431.978667-21.33333300000004c111.36 0 207.36 38.698667 277.632 109.930666 66.197333 67.072 104.746667 161.002667 109.909333 266.581334 118.933333 69.056 149.973333 203.349333 150.933333 209.386666l9.514667 40.362667h-59.882667c18.645333 30.186667 39.530667 78.016 51.072 134.570667z m-45.376-177.237334c-9.024-30.186667-42.261333-120.576-127.68-170.176l-20.053333-11.648-1.130667-23.168c-4.629333-94.805333-39.317333-179.584-97.685333-238.698666C616.469333 54.95466699999997 530.965333 21.33333300000004 431.978667 21.33333300000004c-100.373333 0-190.485333 35.413333-253.738667 99.754667C116.885333 183.50933299999997 84.757333 272.06399999999996 85.333333 377.194667c0.554667 98.261333 37.162667 188.074667 103.082667 252.885333C266.048 706.4533329999999 382.890667 746.666667 527.210667 746.666667c2.901333 0 5.802667 0 8.725333-0.064H929.066667c-9.024-43.434667-25.898667-87.893333-45.269334-119.253334l-40.234666-65.066666h82.218666z m-450.432-111.872h-105.472c-68.949333 0-125.056-60.096-125.056-133.930666 0-73.856 56.106667-133.930667 125.056-133.930667h105.472c68.949333 0 125.013333 60.074667 125.013334 133.930667 0 73.813333-56.064 133.930667-125.013334 133.930666z m0-225.194666h-105.472c-45.44 0-82.389333 40.938667-82.389333 91.264 0 50.325333 36.970667 91.264 82.389333 91.264h105.472c45.418667 0 82.346667-40.96 82.346667-91.264 0-50.346667-36.928-91.264-82.346667-91.264zM288.512 485.333333c0 18.666667-15.018667 33.770667-33.536 33.770667-18.496 0-33.514667-15.104-33.514667-33.770667 0-18.645333 15.018667-33.770667 33.493334-33.770666 18.538667 0 33.557333 15.125333 33.557333 33.770666z m324.053333 33.792c-18.517333 0-33.493333-15.146667-33.493333-33.792 0-18.666667 14.976-33.792 33.493333-33.792 18.517333 0 33.514667 15.146667 33.514667 33.792 0 18.666667-14.997333 33.792-33.493333 33.792z m-234.666666-180.16c-12.352 0-22.357333-10.069333-22.357334-22.506666s10.026667-22.528 22.357334-22.528c12.373333 0 22.336 10.090667 22.336 22.528a22.4 22.4 0 0 1-22.336 22.506666z m89.386666 0c-12.330667 0-22.336-10.069333-22.336-22.506666s10.005333-22.528 22.357334-22.528c12.352 0 22.336 10.090667 22.336 22.528a22.4 22.4 0 0 1-22.336 22.506666z"  horiz-adv-x="1024" />

    
    <glyph glyph-name="shouye1-copy" unicode="&#59553;" d="M1009.158986 829.683524L889.662378-47.69684199999995c-0.019961 0-0.039922-0.009981-0.059883-0.009981a28.937481 28.937481 0 0 0-40.640624-25.41037l-0.029941-0.029942-325.594074 137.960546-64.474074-132.750721a28.904546 28.904546 0 0 0-54.475603 0.179649L324.865497 108.53801199999998l39.810246 45.70074L796.913528 653.780086 225.66924 190.94705699999997 21.37625 277.517973c0.03094 0.089825 0.058885 0.179649 0.088826 0.269473a29.867665 29.867665 0 0 0 0.424172 54.952671L966.681949 862.505419c0.059883-0.077848 0.109786-0.152702 0.169669-0.23055a28.904546 28.904546 0 0 0 42.307368-32.591345z"  horiz-adv-x="1024" />

    
    <glyph glyph-name="wode-copy" unicode="&#59554;" d="M512 94.20799999999997c-205.824 0-373.76 167.936-373.76 373.76S306.176 841.728 512 841.728s373.76-167.936 373.76-373.76S717.824 94.20799999999997 512 94.20799999999997z m0 665.6c-160.768 0-291.84-131.072-291.84-291.84S351.232 176.12800000000004 512 176.12800000000004s291.84 131.072 291.84 291.84S672.768 759.808 512 759.808zM414.72 435.2c-22.528 0-40.96 18.432-40.96 40.96v40.96c0 22.528 18.432 40.96 40.96 40.96s40.96-18.432 40.96-40.96v-40.96c0-22.528-18.432-40.96-40.96-40.96zM609.28 435.2c-22.528 0-40.96 18.432-40.96 40.96v40.96c0 22.528 18.432 40.96 40.96 40.96s40.96-18.432 40.96-40.96v-40.96c0-22.528-18.432-40.96-40.96-40.96zM775.168-73.72799999999995c-22.528 0-40.96 18.432-40.96 40.96 0 51.2-12.288 88.064-37.888 110.592-34.816 31.744-83.968 27.648-83.968 27.648-22.528-2.048-41.984 14.336-44.032 36.864-2.048 22.528 14.336 41.984 36.864 44.032 3.072 0 84.992 7.168 146.432-48.128 43.008-38.912 64.512-97.28 64.512-172.032 0-21.504-17.408-39.936-40.96-39.936zM248.832-73.72799999999995c-22.528 0-40.96 18.432-40.96 40.96 0 75.776 21.504 133.12 64.512 172.032 61.44 56.32 143.36 48.128 146.432 48.128 22.528-2.048 38.912-22.528 36.864-45.056-2.048-22.528-22.528-38.912-44.032-36.864-1.024 0-50.176 3.072-83.968-27.648-24.576-22.528-37.888-60.416-37.888-110.592 0-22.528-18.432-40.96-40.96-40.96z"  horiz-adv-x="1024" />

    
    <glyph glyph-name="publish-copy" unicode="&#60191;" d="M975.75822222 442.14044445c-26.05511111 43.80444445-62.00888889 80.896-104.78933333 108.43022222C843.66222222 705.87733333 708.03911111 820.90666667 548.40888889 820.90666667c-87.49511111 0-169.87022222-34.13333333-231.65155556-96.02844445C261.34755555 669.58222222 228.23822222 597.90222222 221.86666667 520.7608888899999c-56.88888889-14.44977778-108.544-45.96622222-147.68355556-90.68088889C27.76177778 376.94577777999996 2.27555555 308.90666667000005 2.27555555 238.36444444999995c0-77.824 30.26488889-150.98311111 85.33333334-205.93777778 55.06844445-55.06844445 128.11377778-85.33333333 205.93777778-85.33333334h182.04444444V311.18222221999997c0 20.13866667-16.27022222 36.40888889-36.40888889 36.40888889h-57.68533333L512 478.09422222 642.50311111 347.59111111000004H584.81777778c-20.13866667 0-36.40888889-16.27022222-36.40888889-36.40888889v-364.08888889h145.63555556c87.49511111 0 169.87022222 34.13333333 231.65155555 96.02844445C987.59111111 104.90311111000005 1021.72444445 187.27822221999998 1021.72444445 274.77333333c0 59.05066667-15.92888889 116.84977778-45.96622223 167.36711112zM694.04444445 19.91111110999998h-72.81777778V274.77333333h109.22666666c14.67733333 0 27.98933333 8.87466667 33.67822222 22.528s2.50311111 29.24088889-7.85066666 39.70844445l-218.45333334 218.45333333c-14.22222222 14.22222222-37.31911111 14.22222222-51.54133333 0l-218.45333333-218.45333333c-10.46755555-10.46755555-13.53955555-26.05511111-7.85066667-39.70844445s18.88711111-22.528 33.67822223-22.528h109.22666666v-254.86222222h-109.22666666c-120.49066667 0-218.45333333 97.96266667-218.45333334 218.45333334 0 107.97511111 80.44088889 200.93155555 187.27822222 216.17777777l31.51644445 4.55111111-0.22755556 31.85777778v1.36533334 0.91022222c0 140.51555555 114.34666667 254.86222222 254.86222223 254.86222222 128.91022222 0 237.68177778-96.36977778 253.04177777-224.14222222l2.16177778-18.20444445 16.04266667-9.10222222C899.41333333 451.35644445 948.90666667 366.36444444999995 948.90666667 274.77333333c0-140.51555555-114.34666667-254.86222222-254.86222222-254.86222222z"  horiz-adv-x="1024" />

    
    <glyph glyph-name="xiaoxi2-copy" unicode="&#60192;" d="M203.72229689 421.41134697c0 0 0 0 0 0 0-34.24620089 27.76299141-62.0091923 62.00919229-62.0091923 34.24620089 0 62.0091923 27.76299141 62.0091923 62.0091923 0 0 0 0 0 0 0 0 0 0 0 0 0 34.24620089-27.76299141 62.0091923-62.0091923 62.00919228-34.24620089 0-62.0091923-27.76299141-62.00919229-62.00919228s0 0 0 0zM448.81237333 421.41134697c0 0 0 0 0 0 0-34.24620089 27.76299141-62.0091923 62.0091923-62.0091923 34.24620089 0 62.0091923 27.76299141 62.00919229 62.0091923 0 0 0 0 0 0 0 0 0 0 0 0 0 34.24620089-27.76299141 62.0091923-62.00919229 62.00919228-34.24620089 0-62.0091923-27.76299141-62.0091923-62.00919228s0 0 0 0zM693.90244978 421.41134697c0-34.24620089 27.76299141-62.0091923 62.0091923-62.0091923s62.0091923 27.76299141 62.00919229 62.0091923c0 34.24620089-27.76299141 62.0091923-62.00919229 62.00919228-34.24620089 0-62.0091923-27.76299141-62.0091923-62.00919228zM972.5748717 595.21281897c-25.48015408 52.73099378-61.7142803 100.15721245-107.96327822 140.66210133-94.11819141 82.6287597-218.87324918 127.99544889-351.28630993 127.99544888-132.56112355 0-257.3149677-45.51232475-351.28630992-127.99544888-46.24899792-40.50488889-82.48191052-87.78425837-107.96327822-140.66210133-26.51173925-55.08664889-39.91627852-113.56053808-39.91627852-173.80268564 0-70.69878045 19.29549748-140.9557997 55.67525926-203.40675318 31.81408711-54.49803852 76.88465067-103.24954075 130.940928-141.8405357v-146.55305956c0-12.66665245 6.77569422-24.30293333 17.6740883-30.63686637 5.45041067-3.0923283 11.63628089-4.71373748 17.6740883-4.71373749s12.22489125 1.61898192 17.67408828 4.71373749l155.09579852 89.55251673c34.17216948-6.48078222 69.37349689-9.72117333 104.42918875-9.72117333 132.56112355 0 257.3149677 45.51232475 351.28630992 127.9954489 46.24899792 40.50488889 82.48191052 87.78425837 107.96327823 140.66210133 26.51173925 55.08664889 39.91627852 113.56053808 39.91627852 173.80268563 0.14806282 60.38899675-13.40332563 118.86288592-39.91627852 173.94832119zM513.32528355 49.50546962999999c-34.75956622 0-69.52034608 3.68336592-103.10390518 10.89839407-8.54273897 1.76704475-17.52723911 0.44176118-25.03839289-3.97706429l-113.70860089-65.69134459v103.98621393c0 11.92997925-6.03902103 22.97643615-15.90704356 29.60528117-108.55188859 71.14175525-170.85599289 179.39873185-170.85599288 297.08318341 0 205.02816237 192.21344711 371.75902815 428.61272177 371.75902815 236.25242548 0 428.61272178-166.73207941 428.61272178-371.75902815s-192.3602963-371.90709097-428.61272178-371.90709096z"  horiz-adv-x="1024" />

    
    <glyph glyph-name="tougaodashang-copy" unicode="&#60193;" d="M921.842831 58.81887300000005l-302.044174 1.305739 320.446289 323.370899c18.733667 19.268856 18.733667 50.628074 0 69.914326L637.124254 765.167233c-18.733667 19.285229-49.222051 19.268856-67.956741 0L94.847693 277.33977200000004c-18.71627-19.286252-18.733667-50.644447 0-69.913303l146.668431-150.807704-139.359978 2.200108c-19.657712 0-35.582403-16.381086-35.582403-36.599569l0 2.755764c0-20.219507 15.924691-36.599569 35.582403-36.599569l819.687708 0c19.641339 0 35.582403 16.380062 35.582403 36.599569l0-2.755764C957.425234 42.43676400000004 941.48417 58.81887300000005 921.842831 58.81887300000005L921.842831 58.81887300000005zM331.859735 24.60974699999997l-53.706179 55.240115 0 0L124.482641 237.89029400000004c-2.38942 2.474354-2.424212 6.493901 0 8.986675L598.768691 734.703407c2.424212 2.493797 6.331195 2.457981 8.738012 0l303.103296-311.773769c2.407839-2.494821 2.407839-6.476505 0.017396-8.952906L585.772702 79.84986200000003l-53.705156-55.240115L331.859735 24.60974699999997 331.859735 24.60974699999997 331.859735 24.60974699999997zM604.96174 682.101375c-12.506848 1.523703-24.140817-7.588839-25.727964-20.560268l-43.520189-355.477131-341.459882-39.612183c-12.647041-1.471514-21.734-13.187347-20.303418-26.193569 1.326205-12.108782 11.30344-21.044292 22.8668-21.044292 0.855484 0 1.727341 0.034792 2.600221 0.144286l359.477234 41.695634c10.587126 1.217734 18.960841 9.740852 20.286022 20.577664l45.769416 373.990786C626.538151 668.609083 617.588315 680.468179 604.96174 682.101375L604.96174 682.101375z"  horiz-adv-x="1024" />

    
    <glyph glyph-name="eye-copy" unicode="&#60194;" d="M958.960705 404.917402l-20.519336-24.499997-83.688028 80.792071c-39.891546-53.327556-86.916559-89.680509-133.567041-114.379027l38.95522-87.472214-28.372188-15.287171-39.553854 88.816838c-68.88181-30.003338-133.124973-36.69883-167.527504-37.830607v-102.114702h-26.160823v102.251825c-75.812663-1.968841-139.638317 14.179954-192.855356 39.564088l-40.389896-90.687442-28.372188 15.287171 40.292682 90.472548c-50.049906 28.952402-89.373517 65.689095-119.282711 101.203959l-73.145927-70.61836-20.519335 24.499997 73.785493 71.231321c-40.453341 54.53915-58.097186 100.243075-58.097186 100.243075h52.322669C266.402419 336.361003 498.528174 346.32084199999997 498.528174 346.32084199999997c240.359276-11.181667 366.259708 230.069933 366.259708 230.069933h52.324716c-12.582573-33.364899-27.551496-62.58336-44.058449-88.535429l85.906556-82.937944z"  horiz-adv-x="1024" />

    


  </font>
</defs>
</svg>
